<?xml version="1.0" standalone="no"?>
<!DOCTYPE svg PUBLIC "-//W3C//DTD SVG 20010904//EN"
 "http://www.w3.org/TR/2001/REC-SVG-20010904/DTD/svg10.dtd">
<svg version="1.0" xmlns="http://www.w3.org/2000/svg"
 width="192.000000pt" height="192.000000pt" viewBox="0 0 192.000000 192.000000"
 preserveAspectRatio="xMidYMid meet">

<g transform="translate(0.000000,192.000000) scale(0.100000,-0.100000)"
fill="#000000" stroke="none">
<path d="M990 1628 c0 -44 -18 -59 -71 -63 -38 -3 -42 -1 -55 31 -8 19 -21 34
-30 34 -9 0 -51 -19 -93 -43 -42 -23 -90 -48 -106 -55 -48 -20 -57 -42 -37
-93 25 -63 51 -109 62 -109 5 0 60 22 122 49 l113 50 0 42 c0 41 2 43 33 50
18 4 36 9 39 13 3 3 20 -3 37 -13 19 -12 60 -22 106 -25 91 -8 112 4 134 77
13 42 13 49 0 54 -8 3 -20 1 -27 -5 -9 -7 -29 -5 -67 8 -31 10 -79 22 -108 26
l-52 7 0 -35z m150 -34 c57 -8 59 -10 53 -34 -5 -18 -14 -20 -74 -20 -63 0
-70 2 -78 23 -13 33 -3 49 28 43 14 -3 46 -8 71 -12z m-311 -46 c5 -13 12 -37
15 -55 7 -32 7 -33 -60 -63 -105 -48 -109 -48 -130 -5 -22 48 -16 57 71 105
84 45 93 47 104 18z"/>
<path d="M250 1576 c0 -13 -3 -45 -7 -71 -4 -35 -3 -46 5 -41 16 10 15 0 -4
-29 -16 -24 -15 -25 6 -25 22 0 22 0 -4 -21 -34 -26 -23 -48 42 -86 64 -37
154 -105 147 -111 -3 -3 -23 1 -45 8 -33 11 -47 11 -81 0 -23 -8 -51 -13 -62
-13 -11 1 -49 30 -84 65 -60 59 -64 61 -58 33 14 -62 60 -138 102 -168 l42
-30 78 12 c66 10 86 10 128 -3 73 -23 72 -24 62 47 -10 75 -46 217 -60 234 -5
7 -40 22 -77 34 -68 22 -68 22 -74 65 -11 82 -56 163 -56 100z"/>
<path d="M940 1451 c6 -20 5 -33 -3 -40 -14 -11 -287 -131 -299 -131 -4 0 -18
23 -30 50 -36 83 -50 66 -50 -64 0 -93 11 -136 35 -136 7 0 25 -7 40 -15 57
-29 128 -45 150 -34 17 10 19 9 14 -5 -4 -11 -1 -16 10 -16 13 0 14 -3 5 -12
-19 -19 -14 -50 22 -144 18 -49 36 -98 40 -109 7 -18 8 -18 17 -3 5 9 14 52
19 94 6 43 13 80 16 83 3 3 19 -11 36 -31 16 -21 34 -38 38 -38 4 0 16 19 25
43 15 36 18 39 26 22 4 -11 8 -30 8 -41 1 -12 7 -27 14 -33 11 -8 18 -3 33 24
10 19 21 35 25 35 3 0 14 -26 23 -57 34 -120 45 -108 58 63 6 77 6 135 0 152
-13 40 -5 52 38 52 40 0 96 26 105 48 3 7 0 44 -5 83 -8 56 -17 79 -47 119
-39 52 -47 58 -59 39 -4 -7 -25 -9 -63 -4 -31 4 -72 9 -91 11 -71 7 -125 15
-142 20 -14 4 -16 1 -8 -25z m225 -71 c3 -5 -1 -10 -9 -10 -9 0 -16 5 -16 10
0 6 4 10 9 10 6 0 13 -4 16 -10z m42 -53 c-9 -18 -19 -44 -22 -59 -4 -16 -14
-28 -22 -28 -31 0 -93 24 -90 34 5 17 141 105 145 94 2 -5 -3 -23 -11 -41z
m-251 -62 c15 -24 15 -28 -4 -73 -20 -45 -22 -47 -64 -50 -44 -3 -76 6 -110
30 -13 10 -27 10 -60 1 -38 -10 -41 -10 -24 3 11 8 26 14 33 14 17 0 17 20 1
21 -10 0 -10 2 -1 6 7 2 15 20 19 39 l6 34 94 0 c89 0 94 -1 110 -25z m299
-65 c-3 -5 -14 -10 -23 -10 -15 0 -15 2 -2 10 20 13 33 13 25 0z m-191 -62
c33 -60 33 -71 1 -56 -19 8 -28 8 -40 -2 -8 -7 -17 -11 -20 -9 -3 4 9 70 21
108 5 17 6 17 38 -41z m-247 -14 c-3 -3 -12 -4 -19 -1 -8 3 -5 6 6 6 11 1 17
-2 13 -5z"/>
<path d="M1550 1302 c-41 -20 -57 -67 -41 -115 16 -44 13 -75 -8 -96 -40 -40
-48 -91 -13 -91 8 0 21 -8 28 -17 12 -16 18 -13 68 41 l55 59 55 -6 c60 -6 75
3 95 56 10 25 7 33 -26 77 -21 28 -40 50 -44 50 -4 0 -21 -11 -37 -25 -17 -14
-34 -25 -40 -25 -5 0 -12 19 -16 42 -7 40 -21 68 -35 68 -3 0 -22 -8 -41 -18z"/>
<path d="M1371 1017 c-13 -45 -29 -100 -36 -122 -35 -107 -45 -147 -40 -155 4
-6 1 -10 -5 -10 -6 0 -13 7 -15 15 -16 51 -15 50 -29 24 -7 -13 -21 -47 -31
-76 -10 -29 -22 -50 -26 -48 -3 3 -18 30 -33 60 -14 31 -30 54 -35 51 -5 -3
-14 -19 -21 -36 -14 -34 -30 -40 -30 -11 0 11 -4 23 -10 26 -5 3 -10 17 -10
31 0 15 -6 24 -15 24 -8 0 -15 -6 -15 -14 0 -7 -7 -19 -15 -26 -13 -11 -18
-10 -28 4 -11 15 -15 11 -31 -33 -9 -27 -17 -60 -15 -73 3 -37 -11 -61 -27
-47 -8 6 -14 16 -14 22 0 6 -14 41 -32 79 -30 65 -32 67 -49 52 -23 -21 -43
-7 -65 45 -27 65 -106 191 -115 185 -11 -6 -3 -91 14 -144 5 -19 11 -46 12
-60 1 -14 6 -50 11 -80 4 -30 7 -58 6 -62 -1 -4 27 -5 62 -1 39 3 70 1 82 -5
20 -12 24 -11 -75 -17 -53 -3 -58 -10 -60 -67 0 -29 2 -61 5 -71 8 -25 195
-117 223 -110 12 3 21 1 21 -6 0 -6 16 -11 35 -11 24 0 35 -5 35 -14 0 -21 52
-55 86 -57 39 -3 71 8 78 27 5 12 1 14 -15 9 -16 -5 -20 -3 -17 6 3 8 15 13
30 11 21 -3 39 13 107 95 46 54 100 118 122 143 21 25 39 52 39 60 0 9 4 20
10 26 5 5 7 19 3 32 -5 21 -6 21 -19 5 -12 -17 -13 -16 -14 9 0 15 5 39 10 53
9 23 7 28 -10 32 -16 4 -18 9 -9 19 6 7 8 18 4 24 -4 6 1 17 11 24 21 16 12
49 -11 40 -20 -8 -19 10 1 31 13 13 15 29 9 95 -4 44 -10 80 -14 80 -3 0 -17
-37 -30 -83z m-271 -687 c0 -5 -4 -10 -10 -10 -5 0 -10 5 -10 10 0 6 5 10 10
10 6 0 10 -4 10 -10z"/>
<path d="M353 1023 c-7 -3 -13 -15 -13 -27 0 -12 -17 -39 -40 -61 -22 -21 -40
-44 -40 -50 0 -21 51 -85 69 -85 10 0 26 9 36 20 22 24 48 26 66 4 10 -13 142
-84 155 -84 2 0 4 15 4 33 0 49 -21 85 -52 93 -16 3 -28 9 -28 14 0 4 -12 11
-26 14 -24 7 -26 10 -20 50 5 30 3 46 -7 54 -16 13 -87 30 -104 25z"/>
<path d="M1631 769 c-22 -29 -25 -30 -77 -23 l-54 6 0 -32 c0 -42 14 -66 45
-74 21 -5 25 -12 25 -44 0 -30 7 -43 37 -69 21 -18 40 -33 43 -33 3 0 17 21
32 48 l26 47 -21 29 c-15 20 -17 31 -9 34 6 2 21 11 33 21 l21 17 -23 52 c-26
60 -45 66 -78 21z"/>
<path d="M557 552 c-10 -10 -17 -24 -17 -30 0 -17 -50 -15 -56 3 -16 41 -68 3
-79 -57 -6 -34 -5 -39 20 -50 23 -11 26 -16 22 -46 -5 -25 -1 -39 15 -58 28
-31 37 -30 77 6 29 27 32 35 27 65 -6 30 -3 38 28 67 33 30 35 36 29 76 -5 35
-9 42 -28 42 -12 0 -29 -8 -38 -18z m-24 -203 c-6 -6 -19 -9 -29 -6 -17 3 -16
5 6 14 28 12 39 8 23 -8z"/>
</g>
</svg>
