<svg xmlns="http://www.w3.org/2000/svg" xml:space="preserve" width="2157.456" height="800"><path d="M826.379 340.823c1.167-3.735 3.735-5.603 8.87-4.902-2.334 35.25-4.435 70.265-6.77 106.215 1.635-.934 2.102-1.167 2.569-1.634 13.072-14.707 52.524-55.559 52.29-66.297-.233-4.202 0-8.404-.233-12.372-.467-12.14-.934-24.045-1.4-36.184-.234-4.669 1.4-7.003 4.434-7.703 2.568-.467 4.67 1.167 5.837 5.836 2.8 9.57 5.369 19.375 7.936 29.18.467 1.4.7 2.568 1.401 5.369 2.335-2.801 4.202-4.435 5.603-6.536 6.303-9.571 12.372-19.61 19.142-29.18 4.902-6.77 8.404-13.773 6.536-22.41-.233-.701 0-1.401 0-1.868.7-7.47 11.906-15.407 17.275-7.47 1.4 2.1 1.634 4.668 1.167 7.003-.467 1.867-.934 3.501-1.868 5.136-2.1 4.201-4.435 8.403-7.236 12.605-10.272 15.407-20.543 31.048-31.048 46.455-13.54 20.076-27.079 39.918-40.385 59.994-6.77 10.271-6.303 11.672 3.735 17.975 18.909 11.905 37.817 23.81 56.726 35.483 1.4.934 2.801 1.634 4.669 2.801 1.167-2.801 2.1-4.902 3.035-7.003 26.145-66.997 52.29-133.995 78.669-200.992 1.167-3.035 1.634-5.603 1.167-8.17-1.4-5.603-36.183-39.452-45.754-49.49l-7.003-9.104c-15.174 5.603-40.386 17.275-55.56 22.877-23.577 8.87-47.154 18.442-72.6 21.477-11.438 1.4-22.876 2.8-34.548 2.334-26.146-.934-47.389-11.672-63.73-31.748-4.902-5.836-9.337-12.372-12.138-19.375-9.805-25.679-11.206-51.357 1.167-76.802 1.4-3.035 2.568-6.07 4.202-8.871 3.034-5.136 5.836-10.271 9.57-14.707 9.338-11.438 18.91-22.41 28.714-33.382 3.502-3.968 7.237-7.703 11.439-10.738 11.438-7.937 23.81-14.707 37.117-19.376V.233h-8.17c-34.55.934-69.1.7-103.648 1.868-21.944.7-43.654.7-65.597 1.167-39.452.467-79.37 1.167-119.055 1.634-20.776.234-41.552.467-62.328.934-40.385.7-81.004 1.167-121.39 1.868-21.242.233-42.485.7-63.728.933-40.152.467-80.07.934-120.222 1.4-46.221.468-92.676.935-139.13 1.635-5.136 0-10.272.7-15.408.934-.233.7-.233.934-.7 1.634.934 1.167 1.634 2.334 2.568 3.501 4.902 6.07 10.038 12.14 14.94 18.209 3.035 3.735 5.37 8.404 8.87 11.672C38.986 59.294 49.957 72.367 58.828 86.84c5.603 9.337 11.672 13.773 21.476 13.072 14.474-1.167 28.714-1.867 43.187-2.567 32.448-1.401 64.663-2.802 97.111-4.202 38.751-1.868 77.502-3.735 116.02-5.37 19.609-.933 39.451-1.867 59.06-2.8l102.247-4.903c23.344-1.167 46.688-2.1 70.266-3.268 31.047-1.4 62.095-3.035 93.142-4.435h4.202c-1.4 4.201-2.567 7.936-4.202 12.372-188.152 16.808-376.539 31.748-565.625 48.089a359.124 359.124 0 0 0 3.501 4.435c10.738 10.972 21.477 21.943 31.981 32.915 11.439 11.905 22.878 24.044 34.316 36.183 5.136 5.603 10.738 8.638 18.442 6.07.934-.467 2.1-.7 3.268-.934 68.632-12.606 137.263-25.445 205.895-38.05 85.205-15.641 170.411-31.515 255.617-47.156 2.1-.467 3.968-.467 6.07-.7.233.467.466.934.7 1.634-1.401 1.4-2.568 3.268-3.969 4.202-1.634 1.167-3.735 1.4-5.603 2.1-19.142 5.37-38.284 10.506-57.426 15.875-43.186 11.905-86.373 24.044-129.56 35.95-17.74 4.902-35.482 9.337-53.224 14.24-16.34 4.435-32.448 9.104-48.555 13.772-.934.234-1.634.234-2.568.467-5.836 1.401-11.906 2.802-17.742 4.202-9.337 2.335-18.441 5.136-27.779 7.47-7.003 1.868-14.006 3.035-21.01 4.67-3.034.7-6.07 2.1-9.104 3.034-7.937 2.334-16.107 3.968-23.81 7.003-10.506 4.202-21.71 6.536-32.449 10.038-2.334.7-4.902 1.634-9.338 3.035 2.568 1.634 4.202 2.568 5.37 3.501 23.577 21.01 47.388 42.253 70.965 63.496 2.101 1.868 4.202 3.969 6.303 6.07 4.436 4.668 9.338 6.069 15.174 3.268 3.035-1.4 6.07-2.335 9.104-3.502 107.85-42.02 215.466-84.272 323.315-126.291 1.868-.7 3.968-1.4 6.07-2.101.933 7.47.7 9.104-5.136 12.606-7.237 4.202-14.707 7.703-21.944 11.672-70.966 38.05-141.698 76.335-212.664 114.386-15.407 8.403-31.047 16.34-46.454 24.51-3.969 2.102-8.17 3.97-11.672 7.938a21731.951 21731.951 0 0 1 81.937 69.798c39.452-29.413 77.035-61.628 116.02-92.209 38.751-30.58 77.269-61.628 116.253-92.675 1.634 2.334 3.035 4.202 4.436 6.07-1.401 1.633-2.568 3.034-3.735 4.434-31.748 32.916-63.73 65.83-95.478 98.746-30.58 31.748-61.394 63.729-91.975 95.71-1.634 1.634-3.035 3.502-4.669 5.136 23.578 14.94 46.455 29.647 69.332 44.12 6.07 3.735 6.303 3.735 10.505-1.867.233-.234.467-.7.7-.934 36.884-47.622 73.534-95.244 110.417-142.866 12.606-16.34 25.445-32.915 38.285-49.256 1.867-2.334 3.268-5.369 8.17-3.735-1.167 2.802-2.101 5.603-3.735 8.17-22.877 39.686-45.754 79.137-68.865 118.589-15.174 25.911-30.347 51.823-45.287 77.735-1.634 2.801-3.969 5.603-3.502 9.338.7.233 1.167.467 1.4.7 24.045 3.502 48.09 7.237 72.134 10.505 3.968.467 8.17.467 12.139.7a257.37 257.37 0 0 0 5.369-12.839c24.278-55.559 48.322-111.118 72.6-166.676 2.801-6.303 5.369-12.373 8.404-18.442 3.735-7.47 8.403-8.637 16.107-3.502-.7 2.802-1.4 5.836-2.334 8.638l-61.629 184.184c-.467 1.634-.7 3.268-1.167 5.136.934-.234 1.4-.467 1.868-.7l74.934-53.225c4.669-3.268 7.47-7.937 8.637-13.54 1.634-7.703 3.035-15.407 4.902-23.11 6.07-27.546 12.14-55.092 18.442-82.638.934-6.07 2.335-11.672 3.969-17.508zM955.705 694.252c-5.136-8.17-10.272-16.341-15.874-24.278-3.735-5.37-4.202-10.972-1.868-16.808a48.995 48.995 0 0 1 3.502-7.003c11.905-21.01 23.81-41.786 35.716-62.796.934-1.4 1.4-3.034 2.568-5.369-14.006-10.971-27.78-21.943-42.02-33.148-1.867 3.735-3.267 6.536-4.668 9.57-11.672 24.512-23.11 49.023-35.25 73.301-8.17 16.107-5.135 14.707-25.211 14.24-17.275-.467-34.55-.934-51.824-1.634-1.867 0-3.735.233-5.836.467 3.735 24.044 7.47 47.622 11.205 70.966 1.868-1.168 2.568-2.568 3.268-3.969 5.136-9.104 10.505-18.208 15.641-27.312 1.4-2.568 3.268-4.67 6.536-4.67h22.177c-.934 2.102-1.634 3.502-2.334 4.67-13.54 24.744-26.846 49.722-40.385 74.467-1.635 2.801-3.035 5.836-4.436 8.87-3.501 7.47-2.1 14.474 3.735 19.843 3.969 3.735 8.638 6.537 13.306 9.338 13.773 7.937 28.947 6.07 45.054 6.536-2.568-2.801-4.202-5.136-6.07-7.003-4.434-4.202-9.103-8.17-13.305-12.84-7.704-8.403-8.17-14.006-2.335-23.577 7.704-12.372 15.407-24.978 23.111-37.35 4.202-6.537 8.404-13.306 12.606-20.076 3.034 2.334 5.602 4.435 8.637 6.303 3.502 2.334 4.902 5.135 3.268 9.57l-13.306 38.519c-.467 1.4-.7 2.567-1.4 5.369 3.034-2.101 5.135-3.269 7.003-4.67 15.407-10.97 30.58-21.943 45.754-32.914 1.167-.934 2.568-1.634 3.735-2.802 4.902-4.201 5.836-7.236 3.735-13.306-.7-3.501-2.334-7.236-4.435-10.504zM1089.233 165.042c9.804 21.477 19.375 42.953 29.18 64.43.467 1.167 1.4 2.568 2.334 4.202 1.868-1.634 3.035-2.802 4.202-3.969 11.672-12.839 23.344-25.445 35.016-38.284 8.404-9.104 16.808-17.975 25.212-26.846 4.201-4.435 6.069-9.57 4.902-15.64-2.801-15.874-10.505-28.947-22.644-39.685-2.334-1.867-5.136-3.268-7.47-4.902-4.669 3.501-8.404 6.536-12.372 9.337l-56.726 39.218c-4.67 3.269-4.903 3.735-2.802 9.105.467.933.934 2.1 1.168 3.034z"/><path d="M954.07 150.102c1.168-2.801 2.335-5.602 3.736-8.404 11.905-24.044 26.612-44.82 54.391-52.057 8.404-2.1 9.571-5.602 7.47-15.174-9.337-.7-18.675-1.634-28.012-2.334-24.278-1.634-48.323-2.801-72.6-4.435-12.373-.7-24.745-1.4-37.35-2.335-3.269-.233-5.137.934-6.537 3.969-4.202 8.87-8.637 17.741-12.84 26.612-.466.934-.466 2.1-.933 3.268 30.347 17.275 60.46 34.55 91.042 51.824 1.167-.234 1.634-.467 1.634-.934zm-42.719-42.486c-6.07 0-12.139-5.603-12.372-11.205-.234-5.603 5.135-11.672 10.271-11.439 6.303 0 13.306 6.303 13.073 11.439-.234 5.136-6.07 11.205-10.972 11.205zM1005.428 109.717c-18.442 9.338-36.417 31.514-41.786 51.357 6.07 9.104 60.928 74.7 64.896 77.502 4.902-7.704 31.981-77.502 32.915-84.272-.233-.233-.467-.7-.7-.934-15.64-12.605-31.281-25.445-46.922-38.05-3.034-2.101-6.07-3.736-8.403-5.603zM1138.022 83.572c3.968.933 7.937 2.334 12.139 2.8 10.971 1.402 19.842 6.77 27.312 14.474 5.836 5.836 10.972 12.373 16.107 18.909 4.436 5.836 6.77 12.606 7.47 19.842.934 8.17 2.568 16.341 3.969 24.512 13.306-1.635 19.142-5.603 23.81-16.808 3.503-8.404 7.938-16.108 13.774-23.11 6.77-8.171 14.473-14.474 24.745-17.509 3.034-.934 6.069-.934 8.87-2.1 1.4-.468 3.035-2.335 3.035-3.269 0-7.47-.7-14.707-1.167-21.943-19.142-3.035-136.563-12.14-142.165-10.739-.467 2.802-1.168 5.836-1.634 8.871-.467 3.268.7 5.136 3.735 6.07zM1245.17 141.465c-.933.934-1.867 2.1-3.267 3.968 15.407 1.868 29.88 3.735 44.12 5.603 5.602.7 5.602.7 6.536 6.07 1.868 9.337 4.202 18.675 9.104 28.946 10.272-15.407 21.243-28.713 28.013-44.587.467-1.4.934-2.801 1.167-4.436.934-7.236-1.167-10.504-8.17-12.605-8.404-2.335-16.808-4.903-25.212-7.004-4.902-1.167-9.804-2.1-14.706-3.268-3.269-.7-5.836.234-8.404 2.335-9.338 8.404-19.376 16.574-29.18 24.978zM819.142 150.102c.7.7 1.4 1.634 2.335 2.335 10.037 10.971 20.075 21.943 30.113 32.681.7.7 1.634 1.4 2.802 2.335 0-4.903.466-9.105 0-13.307-1.401-11.438 3.735-17.974 13.773-22.41 10.038-4.435 19.842-9.337 29.647-14.006 1.867-.934 3.735-1.868 6.536-3.502-12.372-6.536-23.811-12.372-35.016-18.675-2.335-1.4-4.202-.233-6.07.7-13.773 6.303-27.312 12.373-41.085 18.676-8.87 4.668-9.571 7.936-3.035 15.173zM1188.445 663.904c-1.167-2.568-2.101-5.369-3.268-7.937-12.373-26.845-24.979-53.458-37.35-80.303-.468-.7-.468-1.634-.935-3.035.934-1.167 2.101-2.334 3.269-3.501 16.34-14.24 32.681-28.247 49.255-42.487 9.805-8.403 10.272-10.038 5.603-21.71a119692.84 119692.84 0 0 1-102.013-260.052c-8.404-21.243-16.575-42.253-24.979-63.496 0-.233-.233-.467-.233-.7l-1.4.7c-8.404 21.243-16.575 42.253-24.979 63.496A119692.84 119692.84 0 0 0 949.402 504.93c-4.669 11.906-4.202 13.307 5.602 21.71 16.575 14.007 32.915 28.247 49.256 42.487 1.168 1.167 2.335 2.334 3.268 3.501-.466 1.4-.7 2.101-.933 3.035-12.373 26.845-24.978 53.458-37.35 80.303-1.168 2.568-2.102 5.136-3.269 7.937-1.167 2.568-.7 5.136.7 7.47 2.101 3.502 13.307 14.707 17.742 17.275.934-2.101 1.867-3.969 2.801-5.836 9.805-23.11 19.843-46.221 29.647-69.332 1.634-3.501 2.801-7.47 6.536-9.337 6.303 3.268 6.77 4.668 3.969 12.138-8.637 24.512-17.275 49.023-26.145 73.534-1.868 5.37-1.868 10.272 1.867 14.707 4.902 5.836 9.805 11.672 14.473 17.508 4.436-.934 4.903-4.435 6.07-7.47 8.404-24.278 16.808-48.79 25.211-73.067 1.634-5.136 3.969-10.038 5.836-15.174 4.67 4.436 4.903 4.67 3.502 9.338-2.334 9.338-4.669 18.675-7.47 27.78l-18.208 61.628c-1.868 6.303-.934 11.905 3.268 17.04 8.17 10.506 30.814 31.515 40.618 40.62v1.167c.234-.234.467-.467.7-.467.234.233.468.467.701.467v-1.168c9.571-9.104 32.448-30.113 40.619-40.618 4.202-5.37 5.135-10.738 3.268-17.041-6.07-20.543-12.373-41.086-18.209-61.629-2.567-9.337-5.135-18.675-7.47-27.779-1.167-4.669-1.167-4.902 3.502-9.338 2.1 5.136 4.202 10.038 5.836 15.174 8.404 24.278 16.808 48.79 25.212 73.067.933 3.035 1.4 6.536 6.069 7.47 4.669-5.836 9.571-11.672 14.473-17.508 3.735-4.435 3.735-9.338 1.868-14.707-8.87-24.511-17.508-49.022-26.146-73.534-2.567-7.47-2.1-8.87 3.969-12.138 3.968 1.867 5.136 5.602 6.536 9.337 10.038 23.11 19.843 46.221 29.647 69.332.934 2.1 1.868 3.968 2.801 5.836 4.436-2.801 15.641-13.773 17.742-17.275 1.634-2.334 2.334-4.668.934-7.47z"/><path d="M1294.66 676.043c3.268 0 5.136 2.101 6.536 4.669 5.136 9.104 10.505 18.208 15.64 27.313.701 1.4 1.402 2.567 3.27 3.968 3.734-23.344 7.47-46.921 11.204-70.966-2.1-.233-3.968-.467-5.836-.467-17.274.467-34.549.934-51.824 1.634-20.075.467-17.04 1.868-25.211-14.24-12.139-24.277-23.578-48.789-35.25-73.3-1.4-3.035-2.8-5.836-4.668-9.57-14.24 11.204-28.013 22.176-42.02 33.148 1.168 2.1 1.634 3.735 2.568 5.369 11.906 21.01 23.811 41.786 35.717 62.795a48.995 48.995 0 0 1 3.501 7.003c2.335 5.836 1.868 11.44-1.867 16.808-5.37 7.937-10.739 16.108-15.874 24.278-2.101 3.268-3.735 7.003-5.136 10.738-2.101 5.836-1.167 9.104 3.735 13.306 1.167.934 2.568 1.868 3.735 2.802 15.174 10.971 30.58 21.943 45.754 32.915 1.868 1.4 3.969 2.568 7.004 4.669-.7-2.568-.934-3.969-1.401-5.37-4.435-12.839-8.637-25.678-13.306-38.517-1.4-4.202-.234-7.003 3.268-9.571 2.801-1.868 5.603-4.202 8.637-6.303 4.202 6.77 8.404 13.306 12.606 20.076 7.704 12.372 15.407 24.978 23.11 37.35 5.837 9.571 5.603 15.174-2.334 23.578-4.202 4.435-8.87 8.403-13.306 12.839-1.867 1.867-3.735 4.202-6.07 7.003 16.108-.467 31.282 1.4 45.055-6.536 4.669-2.802 9.337-5.603 13.306-9.338 5.836-5.37 7.236-12.372 3.735-19.842a157.06 157.06 0 0 0-4.436-8.871c-13.539-24.745-26.845-49.723-40.385-74.468-.7-1.4-1.4-2.567-2.334-4.668 8.637-.234 15.64-.234 22.877-.234zM2156.989 12.606c-5.136-.234-10.272-.934-15.407-.934-46.455-.467-92.676-.934-139.13-1.634-40.153-.467-80.07-.934-120.223-1.634-21.243-.234-42.486-.7-63.729-.934-40.385-.7-81.004-1.167-121.389-1.867-20.776-.234-41.552-.467-62.328-.934-39.919-.467-79.604-.934-119.522-1.634-21.943-.234-43.653-.467-65.597-1.167C1415.115.7 1380.566.7 1346.017 0h-8.17v34.316c13.306 4.669 25.678 11.438 37.117 19.375 4.201 3.035 7.937 6.77 11.438 10.739 9.805 10.971 19.376 22.176 28.713 33.381 3.735 4.436 6.537 9.805 9.571 14.707 1.634 2.802 2.802 5.836 4.202 8.871 12.373 25.445 11.205 51.357 1.167 76.802-2.8 7.003-7.236 13.54-12.138 19.375-16.341 20.076-37.584 30.815-63.73 31.748-11.672.467-23.11-.933-34.549-2.334-25.445-3.268-49.022-12.606-72.6-21.477-15.173-5.836-40.385-17.274-55.559-22.877l-7.003 9.104c-9.57 10.038-44.587 43.887-45.754 49.49-.467 2.334 0 5.135 1.167 8.17 26.379 66.998 52.524 133.995 78.67 200.992.933 2.101 1.867 4.436 3.034 7.003 1.868-.933 3.268-1.867 4.67-2.8 18.908-11.906 37.816-23.578 56.725-35.484 10.038-6.303 10.505-7.703 3.735-17.975-13.306-20.076-26.846-39.918-40.385-59.994-10.271-15.407-20.776-30.814-31.048-46.454-2.567-3.969-4.902-8.17-7.236-12.606-.7-1.634-1.4-3.268-1.868-5.136-.467-2.334-.233-4.902 1.167-7.003 5.37-7.937 16.575 0 17.275 7.47 0 .7.233 1.4 0 1.868-1.868 8.637 1.634 15.64 6.536 22.41 6.77 9.57 12.606 19.375 19.142 29.18 1.401 2.1 3.269 3.735 5.603 6.536.7-2.568 1.167-3.968 1.4-5.369 2.568-9.804 5.136-19.376 7.938-29.18 1.167-4.435 3.268-6.303 5.836-5.836 3.034.7 4.668 3.035 4.435 7.703-.467 12.14-.934 24.045-1.4 36.184-.234 4.202 0 8.404-.234 12.372-.234 10.505 39.218 51.357 52.29 66.297.467.7.934.7 2.568 1.634-2.334-35.716-4.435-70.966-6.77-106.215 4.903-.7 7.704 1.167 8.871 4.902 1.634 5.603 3.035 11.439 4.202 17.041 6.07 27.546 12.373 55.092 18.442 82.638l4.902 23.11c1.167 5.603 3.969 10.039 8.638 13.54l74.934 53.225c.233.233.7.233 1.867.7-.466-1.868-.7-3.502-1.167-5.136l-61.628-184.184c-.934-2.801-1.634-5.836-2.334-8.637 7.703-4.903 12.372-3.969 16.107 3.501 3.035 6.07 5.836 12.373 8.404 18.442 24.278 55.559 48.322 111.118 72.6 166.676 1.634 3.969 3.501 7.937 5.369 12.84 3.968-.234 8.17 0 12.139-.7l72.133-10.506c.467 0 .7-.233 1.4-.7.467-3.735-1.867-6.536-3.501-9.337-14.94-25.912-30.114-51.824-45.288-77.736-22.877-39.452-45.987-79.136-68.864-118.588-1.401-2.568-2.335-5.369-3.735-8.17 4.902-1.634 6.302 1.4 8.17 3.735 12.84 16.34 25.678 32.681 38.284 49.256 36.884 47.622 73.534 95.243 110.417 142.865.234.234.467.7.7.934 4.203 5.37 4.436 5.603 10.506 1.868 22.877-14.474 45.754-29.18 69.331-44.12-1.634-1.868-3.034-3.502-4.668-5.136-30.581-31.982-61.162-63.73-91.976-95.71-31.748-32.916-63.496-65.831-95.477-98.746-1.167-1.167-2.334-2.568-3.735-4.436 1.4-1.867 2.801-3.735 4.435-6.069 38.985 31.048 77.502 62.095 116.254 92.676 38.75 30.58 76.335 62.795 116.02 92.209 27.545-23.578 54.624-46.455 81.937-69.799-3.502-4.202-7.704-5.836-11.672-7.937-15.407-8.17-31.048-16.34-46.455-24.511-70.966-38.05-141.698-76.335-212.664-114.386-7.236-3.968-14.94-7.47-21.943-11.672-5.836-3.502-6.303-5.136-5.136-12.606 2.101.7 4.202 1.401 6.07 2.101 107.849 42.02 215.465 84.272 323.314 126.291 3.035 1.168 6.303 2.101 9.105 3.502 5.836 2.801 10.738 1.4 15.173-3.268 2.101-2.101 4.202-4.202 6.303-6.07 23.578-21.243 47.155-42.252 70.966-63.495 1.167-1.167 2.801-1.868 5.37-3.502-4.436-1.4-6.77-2.1-9.339-3.035-10.738-3.501-21.71-5.836-32.448-10.038-7.703-3.034-15.874-4.668-23.81-7.003-3.035-.934-6.07-2.334-9.105-3.034-7.003-1.635-14.006-3.035-21.01-4.67-9.337-2.334-18.441-5.135-27.779-7.47-5.836-1.633-11.905-2.8-17.741-4.201-.934-.234-1.634-.234-2.568-.467-16.108-4.669-32.448-9.338-48.556-13.773-17.741-4.902-35.483-9.338-53.224-14.24-43.187-11.905-86.373-24.044-129.56-35.95-19.142-5.369-38.284-10.505-57.426-15.874-1.867-.467-3.968-.934-5.602-2.1-1.635-1.168-2.802-2.802-3.969-4.203.234-.467.467-.933.7-1.634 2.101.234 3.969.234 6.07.7 85.206 15.641 170.411 31.515 255.617 47.156 68.631 12.605 137.263 25.445 205.894 38.05 1.168.234 2.101.467 3.269.934 7.47 2.801 13.072-.467 18.441-6.07 11.439-12.138 22.877-24.277 34.316-36.183 10.505-10.971 21.477-21.943 31.981-32.915.934-.933 1.868-2.334 3.502-4.435-189.087-16.34-377.473-31.281-565.626-48.322-1.4-4.436-2.568-7.937-4.202-12.373h4.202c31.048 1.401 62.095 3.035 93.143 4.436 23.344 1.167 46.688 2.1 70.265 3.268l102.247 4.902c19.61.934 39.452 1.868 59.06 2.801 38.752 1.868 77.503 3.736 116.02 5.37 32.449 1.4 64.663 2.8 97.112 4.202 14.473.7 28.946 1.4 43.186 2.567 9.571.934 15.64-3.501 21.477-13.072 8.87-14.707 19.842-27.546 32.448-39.218 3.735-3.268 5.836-7.937 8.87-11.672 4.903-6.07 9.805-12.14 14.94-18.209.934-1.167 1.635-2.334 2.569-3.501-.234.934-.234.7-.467 0z"/></svg>