<svg xmlns="http://www.w3.org/2000/svg" width="800" height="800" viewBox="0 0 211.667 211.667"><g style="fill:#000;fill-opacity:1"><path d="M127.485 208.498h-4.429v-3.874c.277-4.983-6.09-7.752-6.09-7.752s2.022-16.61-2.492-28.79c-2.074-5.598-6.592-10.942-8.533-12.85l-13.66 9.02 2.755-12.437c-7.286-1.25-20.358-2.319-26.517-2.004a109.813 109.813 0 0 0-22.147 1.107c-6.308.962-13.011 2.492-15.78 4.706-2.77 2.213-5.955 6.861-8.029 12.457-4.513 12.18-2.492 28.791-2.492 28.791s-6.367 2.769-6.09 7.752v3.874H9.556v14.95h4.705l-.277 11.072c4.483 16.229 10.444 28.457 18.548 34.881l5.01 9.762 14.187-22.482c.636 18.784-5.079 39.85-5.079 39.85h43.74s7.475-6.09 11.35-14.119c.83-12.457 2.769-13.01 2.769-13.01 8.103-6.425 14.064-18.653 18.547-34.882l-.277-11.072h4.706zM77.47 154.134c4.675.867 8.023.87 12.698 1.736.527.306-.034 2.19-.498 4.107a3741.466 3741.466 0 0 1-3.646 14.689c.912-.833 9.353-6.917 11.243-8.316 1.89-1.398 6.761-6.247 8.504-5.743 1.743.504 4.119 4.343 5.656 7.474 4.152 6.644 1.661 31.835.554 37.372-3.783 1.844-7.567 3.691-11.35 5.536a26.134 26.134 0 0 1-2.492-5.536 26.132 26.132 0 0 1-1.107-5.537c-1.417 4.67-1.618 5.309-1.939 6.09-.666 1.626-1.858 3.897-4.152 6.367H76.547a220.364 220.364 0 0 1-1.593-16.748h2.983c.232 1.436.649 2.621 1.377 3.875 5.842-1.177 10.718-3.559 14.612-7.164l.336-.034-.15-.137c.05-.048.1-.092.15-.138l-.336-.034c-3.896-3.605-8.771-5.986-14.612-7.164-.728 1.254-1.145 2.441-1.377 3.875H74.67a219.924 219.924 0 0 1 1.755-33.813.89.89 0 0 1 1.046-.757zm-51.859 13.947a39.39 39.39 0 0 1 5.26-8.028c1.4-.21 4.262-.433 7.475.83a14.368 14.368 0 0 1 4.428 2.77c-.129-.476-.647-2.605.554-4.706a6.065 6.065 0 0 1 2.215-2.215l14.025-2.598a.889.889 0 0 1 1.045.76 220.192 220.192 0 0 1 1.755 33.812h-3.267c-.233-1.435-.649-2.621-1.377-3.875-5.843 1.177-10.718 3.559-14.612 7.164l-.336.034.15.137c-.05.048-.1.092-.15.138l.336.034c3.896 3.605 8.771 5.987 14.612 7.164.728-1.254 1.144-2.441 1.377-3.875h2.983a220.364 220.364 0 0 1-1.593 16.748H46.096c-2.293-2.47-3.486-4.741-4.151-6.367-.322-.781-.522-1.42-1.939-6.09a26.009 26.009 0 0 1-3.6 11.073l-11.349-5.537c-1.106-5.538-3.598-30.729.555-37.373zm35.71 121.25h-9.965s2.61-12.731 3.24-19.187c.919-9.418.774-28.376.774-28.376s-10.69 18.521-15.99 26.458c-1.939-3.046-15.984-17.097-18.753-22.91-3.046-8.028-3.046-17.716-3.046-17.716l18.27 4.982c1.956 2.832 3.033 7.446 4.706 12.457 1.534-3.472 3.026-7.135 5.537-10.519 0 0 12.18 0 15.226 2.77.002-.003.002 50.934.002 52.041zm7.198-61.733c-.368.002-.735.003-1.107.002a135.725 135.725 0 0 1-42.908-7.198c0-2.122-.83-4.245-.83-6.367 10.668 2.897 26.064 5.711 43.46 5.813.465.003.925.002 1.385.002.46.002.921.002 1.385-.002 17.397-.102 32.795-2.916 43.461-5.813 0 2.122-.83 4.245-.83 6.367a135.776 135.776 0 0 1-42.908 7.198c-.372.002-.74-.002-1.108-.002zm47.892 17.718c-2.769 5.813-18.27 20.763-20.208 23.807-1.939 3.046-2.77 10.519-2.77 10.519l-7.751 9.69h-9.965v-52.044c3.046-2.77 15.226-2.77 15.226-2.77 2.51 3.385 4.002 7.049 5.536 10.52 1.674-5.012 2.75-9.626 4.706-12.458l18.27-4.982c0 .002 0 9.69-3.044 17.718z" style="fill:#000;fill-opacity:1;stroke-width:.1698779" transform="translate(37.313 -113.828)"/><path d="m258.975 430.215-75.32 75.318h36.33v60.52a416.351 416.351 0 0 1 38.984.162c9.646-.492 23.794-.08 38.996.9v-61.582h36.328zM5.242 576.482l.475 106.99 25.687-25.687 42.899 42.899c.6-20.325 3.252-44.579 10.974-65.416 3.093-8.344 6.845-16.117 10.891-23l-9.625-9.625 25.69-25.688H5.714Zm507.463 0-.473.473H405.717l25.69 25.69-10.231 10.23c4.448 6.934 8.593 14.596 11.482 22.393 7.724 20.843 10.376 45.104 10.975 65.431l42.914-42.914 25.685 25.686zM-65.709 754.896l-75.316 75.319 75.318 75.318v-36.328h118.99l.617-24.678H36.115v-53.302H-65.707Zm649.365 0-.002 36.329H481.832v53.302h-17.785l.617 24.678h118.99v36.328l75.32-75.318zM77.848 956.203l-46.444 46.442-25.69-25.69.003 106.518-.475.472 106.99-.474-25.685-25.686 37.482-37.482-1.074-2.092c-17.534-13.902-32.41-35.006-45.107-62.008Zm362.254 0c-12.698 27.002-27.574 48.106-45.108 62.008 0 0-.622.214-1.566 1.596l37.976 37.978-25.687 25.688 106.988.472-.473-.47.002-106.518-25.689 25.688zm-220.118 164.543v34.15h-36.33l75.32 75.319 75.319-75.318h-36.328v-34.15h-38.99z" style="fill:#000;fill-opacity:1;stroke-width:.87318116" transform="matrix(.26458 0 0 .26458 37.313 -113.828)"/></g></svg>