<svg xmlns="http://www.w3.org/2000/svg" width="400" height="400" version="1.0" viewBox="0 0 300 300"><path d="M109.1 45.1c-8 2-8.7 2.6-9.7 7.5-.6 3.1-3.6 5.4-7 5.4-.8 0-5 1.8-9.4 4-7.4 3.7-7.9 4.2-8.5 7.7-.4 2.1-1.3 7.1-2.1 11.2-.8 4-1.4 8.3-1.3 9.5 0 3.4 12.4 12.8 19.8 15.1 8.5 2.6 11.2 6.9 14.1 23.2 1.8 10.1 9.9 43.8 11.6 48.3.4.9 3-3.3 6.8-10.9l6.3-12.4 3.6 6c2 3.3 5.1 9 6.8 12.7 1.7 3.6 3.4 6.6 3.8 6.6.3 0 2.2-8.1 4.1-18 1.9-9.9 3.7-18 4-18 .3.1 4.5 7 9.4 15.5 5 8.5 9.3 15.5 9.7 15.5.6 0 3.9-16.1 3.9-19.4 0-3 1.6-1.6 7.9 6.9 3.5 4.7 6.5 8.4 6.8 8.2.2-.2-.2-10.6-.9-23.1l-1.2-22.6 2.7-2.8c1.6-1.6 4.7-3.3 7.5-4.1 2.7-.6 6.5-2.6 8.5-4.2 4.6-3.8 4.7-6.4.8-17.4l-2.9-8-5.3-2c-5.3-2.1-5.5-2.2-12.4-14.5l-7-12.3-13.5-4.4c-9.1-2.9-17.5-4.9-26-6-7.2-.9-14.1-2.4-16.2-3.4-4.5-2.3-5.2-2.3-14.7.2zm26.2 34.3c4.3 5.8 4.7 6.9 4.7 11.9 0 4.7-.5 6.2-3.3 9.8-2.5 3.3-4.2 4.5-7.9 5.5l-4.8 1.2-7-6.5c-8.5-7.9-10.4-11.1-9.5-16.1.8-4.7 6.6-9.3 13.8-10.8 8.8-2 8.9-1.9 14 5zm48.5 11.9.3 4.4-6.2.7c-10.5 1-18.3.7-20.6-.9-4.2-2.9-2.2-4.7 9.3-8.6 10.8-3.6 10.9-3.7 13.9-1.8 2.5 1.5 3.1 2.5 3.3 6.2zM152 106.4c0 .8 1.1 5.3 2.5 10.1s2.4 8.9 2.2 9.2c-.3.2-2.1-.4-4.1-1.3l-3.6-1.8-4.3 4.2c-2.4 2.3-4.6 4-4.9 3.6-.6-.6 3.6-11.1 8.3-20.7 2.3-4.6 3.9-6 3.9-3.3z"/><path d="M225.2 49.9c-1.5 1-12.2 14.3-12.2 15.2 0 .4 1.6 5.1 3.5 10.5l3.5 9.6-4 4.5c-2.2 2.5-4 4.9-4 5.3 0 .4.7 2.7 1.5 5s1.5 6 1.5 8c0 3.4-.6 4.4-5.4 8.4-2.9 2.5-6.2 4.6-7.2 4.6-5 .1-3.7 3.6 4.4 12.2.4.4 8.1-5.1 17.1-12.1l16.4-12.9 4.1 2.5c2.3 1.4 6 3.9 8.3 5.4 2.3 1.6 4.5 2.9 4.9 2.9.5 0 5.4-3 11.1-6.8 11.6-7.6 10.9-6.1 9-20.2l-1.2-8.5-12.2-1.4-12.3-1.4v-5.1c0-2.8-.3-8.8-.6-13.2l-.7-8.2-12.3-2.4c-6.8-1.4-12.7-2.2-13.2-1.9zM27.6 65.1c-5.3 4.4-9.6 8.1-9.6 8.3 0 .2 2.4 6.2 5.4 13.4 4 9.6 5.1 13.3 4.3 14-.7.5-5.5 3.3-10.7 6.2-5.2 2.9-9.6 5.3-9.7 5.4-.1 0 .5 5.3 1.2 11.6.8 6.3 1.4 12 1.5 12.6 0 .6 5 2.8 11.2 4.9l11.1 3.8 3-3.4c1.7-1.9 5.6-6.1 8.7-9.5l5.6-6 16.4 7.3c9 4 16.5 7.3 16.6 7.3.1 0 .5-1.9.9-4.2.4-2.3 3-8.2 5.7-13.1s4.8-9 4.6-9.2c-.2-.1-2.8-1.5-5.8-3s-10.8-5.9-17.2-9.7c-13.6-8-12.7-6.1-10.3-23.8.8-5.8 1.5-10.8 1.5-11.2 0-.3-1.2-1.1-2.7-1.6-1.6-.5-7.1-2.6-12.4-4.5l-9.7-3.5-9.6 7.9zM92.2 128.2l-4.2 9.3-1.4 31.7c-1.2 25.3-1.3 32.4-.3 35.2 1 3 4.4 5.9 20.5 17.6 17.9 13.1 20.9 14.8 41.5 24.6 19.2 9.1 22.5 10.4 24.2 9.3 1.1-.6 11.4-8.4 22.8-17.2 16.5-12.7 22.8-18.3 30-26.4 5.1-5.8 9.3-11 9.5-11.7.1-.6-6.4-14.9-14.6-31.6-10.2-20.9-16.4-32.4-19.7-36.5-2.7-3.3-5-6.2-5.2-6.4-1.1-1.5-1.1 2.5.1 17 .8 9 2 23.6 2.6 32.4.6 8.8 1.4 16.9 1.7 17.9.3 1.2-2.8-1.1-7.6-5.5-4.5-4.1-8.6-7.5-9-7.7-.8-.3-5.1 13.9-5.1 16.6 0 .7-.4 1.2-.9 1.2-1.2 0-9.9-12.9-15-22.3-2.3-4.2-4.6-7.7-5-7.7-.4 0-1.6 9.3-2.7 20.7l-1.9 20.6-11-15.1c-6-8.3-11.3-15.2-11.6-15.2-.3 0-2.9 4.3-5.8 9.6l-5.3 9.6-3.8-5.9c-3.3-5.1-4.5-8.6-8.8-27.3-2.8-11.8-5.8-26.7-6.7-33-1-6.3-2.1-11.8-2.4-12.3-.4-.4-2.6 3.4-4.9 8.5z"/><path d="M228.3 172.7c.2 1 3.4 7.9 7 15.4l6.5 13.6-3.4 3.9c-1.8 2.1-3.3 4.2-3.4 4.6 0 .4 3.3 2.3 7.4 4.2 7.2 3.3 7.4 3.5 8.1 7.7.4 2.4 1.4 7.2 2.2 10.6l1.5 6.2 5.7 1.1c3.1.7 8.5 1.8 12 2.6 3.6.8 6.8 1.1 7.1.7.9-1 10-24 10-25.2 0-.5-3-3.3-6.7-6.2-3.8-2.9-7.1-5.5-7.5-5.9-.4-.3 2.4-3 6.2-6 3.9-3 7-6.2 7-7.2 0-.9-.9-5.7-2.1-10.6l-2-8.9-4.6-.7c-2.5-.3-7.3-.6-10.7-.6-6.1 0-6.2 0-11.5 5.4l-5.4 5.5-12-6c-9.3-4.7-11.9-5.6-11.4-4.2zM30 194.9l-9.5 5.7.3 10.5c.5 16.9-.6 15.4 12.8 17.4 10.9 1.7 11.5 1.9 11 3.9-2.1 7.8-3.7 16.8-3.3 18 .5 1.3 19.8 13.6 21.5 13.6 1.1 0 18.2-17.6 18.2-18.7 0-.4-.9-4.2-2-8.3-1.1-4.1-2-8-2-8.7 0-.6 3.1-3.1 7-5.5 3.8-2.4 7-4.5 7-4.8-.1-.3-1.8-1.7-3.8-3.1-5-3.4-7.8-11.9-6.8-20.3.4-3.1.4-5.6-.1-5.6s-5.3 2.7-10.7 6c-5.4 3.3-10.4 6-11 6-.6 0-4-1.9-7.6-4.3-12.9-8.6-10.2-8.4-21-1.8z"/></svg>