<?xml version="1.0" standalone="no"?>
<!DOCTYPE svg PUBLIC "-//W3C//DTD SVG 20010904//EN"
 "http://www.w3.org/TR/2001/REC-SVG-20010904/DTD/svg10.dtd">
<svg version="1.0" xmlns="http://www.w3.org/2000/svg"
 width="300.000000pt" height="300.000000pt" viewBox="0 0 300.000000 300.000000"
 preserveAspectRatio="xMidYMid meet">

<g transform="translate(0.000000,300.000000) scale(0.100000,-0.100000)"
fill="#000000" stroke="none">
<path d="M1091 2549 c-80 -20 -87 -26 -97 -75 -6 -31 -36 -54 -70 -54 -8 0
-50 -18 -94 -40 -74 -37 -79 -42 -85 -77 -4 -21 -13 -71 -21 -112 -8 -40 -14
-83 -13 -95 0 -34 124 -128 198 -151 85 -26 112 -69 141 -232 18 -101 99 -438
116 -483 4 -9 30 33 68 109 l63 124 36 -60 c20 -33 51 -90 68 -127 17 -36 34
-66 38 -66 3 0 22 81 41 180 19 99 37 180 40 180 3 -1 45 -70 94 -155 50 -85
93 -155 97 -155 6 0 39 161 39 194 0 30 16 16 79 -69 35 -47 65 -84 68 -82 2
2 -2 106 -9 231 l-12 226 27 28 c16 16 47 33 75 41 27 6 65 26 85 42 46 38 47
64 8 174 l-29 80 -53 20 c-53 21 -55 22 -124 145 l-70 123 -135 44 c-91 29
-175 49 -260 60 -72 9 -141 24 -162 34 -45 23 -52 23 -147 -2z m262 -343 c43
-58 47 -69 47 -119 0 -47 -5 -62 -33 -98 -25 -33 -42 -45 -79 -55 l-48 -12
-70 65 c-85 79 -104 111 -95 161 8 47 66 93 138 108 88 20 89 19 140 -50z
m485 -119 l3 -44 -62 -7 c-105 -10 -183 -7 -206 9 -42 29 -22 47 93 86 108 36
109 37 139 18 25 -15 31 -25 33 -62z m-318 -151 c0 -8 11 -53 25 -101 14 -48
24 -89 22 -92 -3 -2 -21 4 -41 13 l-36 18 -43 -42 c-24 -23 -46 -40 -49 -36
-6 6 36 111 83 207 23 46 39 60 39 33z"/>
<path d="M2252 2501 c-15 -10 -122 -143 -122 -152 0 -4 16 -51 35 -105 l35
-96 -40 -45 c-22 -25 -40 -49 -40 -53 0 -4 7 -27 15 -50 8 -23 15 -60 15 -80
0 -34 -6 -44 -54 -84 -29 -25 -62 -46 -72 -46 -50 -1 -37 -36 44 -122 4 -4 81
51 171 121 l164 129 41 -25 c23 -14 60 -39 83 -54 23 -16 45 -29 49 -29 5 0
54 30 111 68 116 76 109 61 90 202 l-12 85 -122 14 -123 14 0 51 c0 28 -3 88
-6 132 l-7 82 -123 24 c-68 14 -127 22 -132 19z"/>
<path d="M276 2349 c-53 -44 -96 -81 -96 -83 0 -2 24 -62 54 -134 40 -96 51
-133 43 -140 -7 -5 -55 -33 -107 -62 -52 -29 -96 -53 -97 -54 -1 0 5 -53 12
-116 8 -63 14 -120 15 -126 0 -6 50 -28 112 -49 l111 -38 30 34 c17 19 56 61
87 95 l56 60 164 -73 c90 -40 165 -73 166 -73 1 0 5 19 9 42 4 23 30 82 57
131 27 49 48 90 46 92 -2 1 -28 15 -58 30 -30 15 -108 59 -172 97 -136 80
-127 61 -103 238 8 58 15 108 15 112 0 3 -12 11 -27 16 -16 5 -71 26 -124 45
l-97 35 -96 -79z"/>
<path d="M922 1718 l-42 -93 -14 -317 c-12 -253 -13 -324 -3 -352 10 -30 44
-59 205 -176 179 -131 209 -148 415 -246 192 -91 225 -104 242 -93 11 6 114
84 228 172 165 127 228 183 300 264 51 58 93 110 95 117 1 6 -64 149 -146 316
-102 209 -164 324 -197 365 -27 33 -50 62 -52 64 -11 15 -11 -25 1 -170 8 -90
20 -236 26 -324 6 -88 14 -169 17 -179 3 -12 -28 11 -76 55 -45 41 -86 75 -90
77 -8 3 -51 -139 -51 -166 0 -7 -4 -12 -9 -12 -12 0 -99 129 -150 223 -23 42
-46 77 -50 77 -4 0 -16 -93 -27 -207 l-19 -206 -110 151 c-60 83 -113 152
-116 152 -3 0 -29 -43 -58 -96 l-53 -96 -38 59 c-33 51 -45 86 -88 273 -28
118 -58 267 -67 330 -10 63 -21 118 -24 123 -4 4 -26 -34 -49 -85z"/>
<path d="M2283 1273 c2 -10 34 -79 70 -154 l65 -136 -34 -39 c-18 -21 -33 -42
-34 -46 0 -4 33 -23 74 -42 72 -33 74 -35 81 -77 4 -24 14 -72 22 -106 l15
-62 57 -11 c31 -7 85 -18 120 -26 36 -8 68 -11 71 -7 9 10 100 240 100 252 0
5 -30 33 -67 62 -38 29 -71 55 -75 59 -4 3 24 30 62 60 39 30 70 62 70 72 0 9
-9 57 -21 106 l-20 89 -46 7 c-25 3 -73 6 -107 6 -61 0 -62 0 -115 -54 l-54
-55 -120 60 c-93 47 -119 56 -114 42z"/>
<path d="M300 1051 l-95 -57 3 -105 c5 -169 -6 -154 128 -174 109 -17 115 -19
110 -39 -21 -78 -37 -168 -33 -180 5 -13 198 -136 215 -136 11 0 182 176 182
187 0 4 -9 42 -20 83 -11 41 -20 80 -20 87 0 6 31 31 70 55 38 24 70 45 70 48
-1 3 -18 17 -38 31 -50 34 -78 119 -68 203 4 31 4 56 -1 56 -5 0 -53 -27 -107
-60 -54 -33 -104 -60 -110 -60 -6 0 -40 19 -76 43 -129 86 -102 84 -210 18z"/>
</g>
</svg>
