<svg xmlns="http://www.w3.org/2000/svg" xml:space="preserve" style="enable-background:new 0 0 1000 849.9" viewBox="0 0 1000 849.9"><path d="M431.3 579.7h-1.4c-.5 0-.5 0-.9.3-.3.2-.6.5-1.2.8-4.9 2.7-6.6 12-5 26 2.9 2.5 6.5 5.2 10.6 8 .1-9.1 1.3-22.4 1.3-22.4l.3-12.3c-1.3-.5-2.4-.4-3.7-.4zM546.3 617l-.2-6.8c-.6-6.5-2.3-10.8-5.4-12.4-.6-.3-.9-.6-1.2-.8-.5-.3-.5-.3-.9-.3h-1.4c-1.4 0-2.5-.2-3.7.5l.3 20.1c.3 2.6.3 5.4.2 8.1l.1 8c3.7-1.8 7.5-3.7 11.1-5.8.6-3.8 1-7.4 1.1-10.6zM530.9 625.3l-.2-7.5c-.6-6.1-2.5-10.5-5.4-12-.6-.3-.9-.6-1.2-.8-.5-.3-.5-.3-.9-.3h-1.4c-1.4 0-2.5-.2-3.7.5l.6 35c3.6-1.3 7.3-2.9 11.2-4.7.6-3.7.9-7.1 1-10.2zM510.8 606.9c-.6-.3-.9-.6-1.2-.8-.5-.3-.5-.3-.9-.3h-1.4c-1.4 0-4.7-.6-5.9 0v39.1c3.1-.5 9-3.5 13.4-5.1.2-1.3.4-2.5.6-3.7l-.4-23.3c-1-2.9-2.4-5-4.2-5.9z"/><path d="M690.4 508c-4-14.4-6.1-21.5-9.2-29.2-9.7-23.7-8.8-55-3.1-75.3 7.7-27.7 7.7-73.8 0-113.7-17.4-61.9-135.3-96.8-178.3-95.3-43-1.5-160.9 33.4-178.3 95.3-7.7 40-7.7 86.1 0 113.7 5.7 20.3 6.6 51.6-3.1 75.3-3.1 7.7-5.2 14.8-9.2 29.2-5.1 18.1-5.1 21.8-3.1 24.6 1.1 1.5 30.7 9.2 38.4 7.7 7.7-1.5 33.2-6.8 44.6-4.6 17.1 3.2 29 11.4 30.7 27.7 1.5 15.4-4.6 20.7-4.6 33.8 0 1.7 1.6 4.1 4.3 6.8-1-11.3.1-22.3 6.9-26 .5-.2.8-.5 1.1-.6.9-.6 1.4-.9 2.8-.9h1.2c1.8-.2 3.8-.2 6.1 1.4l.6.5-.2 9.1c.6-.6 1.4-1.1 2.2-1.5.5-.2.8-.5 1.1-.6.9-.6 1.4-.9 2.8-.9h1.2c1.8-.2 3.8-.2 6.1 1.4l.6.5-.3 12.4c.9-1.5 2.2-2.8 3.7-3.5.5-.2.8-.5 1.1-.6.9-.6 1.4-.9 2.8-.9h1.2c1.8-.2 3.8-.2 6.1 1.4l.6.5-.2 10.9c.9-1.5 2.2-2.8 3.7-3.5.5-.2.8-.5 1.1-.6.9-.6 1.4-.9 2.8-.9h1.2c1.8-.2 3.8-.2 6.1 1.4l.8.3-.1 4.6c1.1-2.1 2.5-3.7 4.3-4.7 5-2.7 8.7-1.4 13 1.5l.8-.3c2.3-1.5 4.3-1.5 6.1-1.4h1.2c1.4 0 1.8.3 2.8.9.3.2.6.5 1.1.6 1 .5 1.9 1.3 2.7 2.2l-.1-3.1.8-.3c2.3-1.5 4.3-1.5 6.1-1.4h1.2c1.4 0 1.8.3 2.8.9.3.2.6.5 1.1.6 1.5.8 2.8 2 3.7 3.5L530 596l.6-.5c2.3-1.5 4.3-1.5 6.1-1.4h1.2c1.4 0 1.8.3 2.8.9.3.2.6.5 1.1.6 1.5.8 2.8 2 3.7 3.5l-.3-12.4.6-.5c2.3-1.5 4.3-1.5 6.1-1.4h1.2c1.4 0 1.8.3 2.8.9.3.2.6.5 1.1.6.8.5 1.5.9 2.2 1.5l-.2-9.1.6-.5c2.3-1.5 4.3-1.5 6.1-1.4h1.2c1.4 0 1.8.3 2.8.9.3.2.6.5 1.1.6 7.1 3.9 8 15.9 6.7 27.8 4-3.6 6.4-6.7 6.4-8.8 0-13.1-6.1-18.4-4.6-33.8 1.7-16.3 13.7-24.4 30.7-27.7 11.4-2.2 36.9 3.1 44.6 4.6 7.7 1.5 37.3-6.1 38.4-7.7 2.4-2.9 2.4-6.6-2.6-24.7zm-218-27.4c-1.1 3.5-4.3 6-8 6.1-6.8.3-17.4.6-23.2.3-5.7 2.8-12.9 5.7-12.1 10.1 1.5 7.7-58.9-7.5-64.6-33.8-4.6-21.5 0-38.4 0-38.4s26.1 20 44.6 23.1 35.3 26.1 38.4 32.3c.5.8.3 1.5 0 2.3 6.6 1.7 22.4 3.1 32.3-25.4 3.7-10.4-3.7 12.2-7.4 23.4zm27.4 48.9c-6.1-1.5-20.7 43.5-18.4 27.7 4.6-30.7 3.1-55.3 18.4-72.2 15.4 16.9 13.8 41.5 18.4 72.2 2.3 15.8-12.3-29.3-18.4-27.7zm134.1-66.1c-5.7 26.3-66.1 41.5-64.6 33.8.9-4.5-6.3-7.4-12.1-10.1-6 .2-16.6-.2-23.2-.3-3.7-.2-6.9-2.6-8-6.1-3.7-11.2-10.9-33.8-7.4-23.4 9.8 28.4 25.7 27.1 32.3 25.4-.5-.8-.5-1.5 0-2.3 3.1-6.1 20-29.2 38.4-32.3s44.6-23.1 44.6-23.1 4.7 16.9 0 38.4z"/><path d="M559.8 593.2c-.9-2.2-2.2-3.7-3.7-4.6-.6-.3-.9-.6-1.2-.8-.5-.3-.5-.3-.9-.3h-1.4c-1.4 0-2.5-.2-3.7.5l.5 22c.2 2.3.3 4.8.2 7.4v7.5c.4-.1.8-.1 1.2-.2 3.3-1.9 6.5-3.8 9.5-5.8l-.5-25.7zM574.8 608.6c1.9-14.9.3-24.8-4.8-27.5-.6-.3-.9-.6-1.2-.8-.5-.3-.5-.3-.9-.3h-1.4c-1.4 0-2.5-.2-3.7.5l.3 12.3 1.2 23.5c3.9-2.7 7.4-5.3 10.5-7.7zM460.5 596.5h-1.4c-.5 0-.5 0-.9.3-.3.2-.6.5-1.2.8-3.1 1.7-4.8 6-5.4 12.4l-.2 6.8c.1 3 .4 6.2.9 9.8 3.7 2.1 7.5 4.1 11.3 5.9l.1-7.3c-.2-2.8-.2-5.5.2-8.1l.3-20.1c-1.3-.7-2.4-.5-3.7-.5zM445.1 587.3h-1.4c-.5 0-.5 0-.9.3-.3.2-.6.5-1.2.8-1.5.9-2.8 2.5-3.7 4.6l-.4 24.7c3.4 2.2 7 4.4 10.7 6.6v-7.1c-.2-2.6 0-5.1.2-7.4l.5-22c-1.3-.7-2.4-.5-3.8-.5zM475.8 604.5h-1.4c-.5 0-.5 0-.9.3-.3.2-.6.5-1.2.8-2.9 1.5-4.8 5.8-5.4 12l-.2 7.5c.1 2.9.4 6 .9 9.4 3.9 1.8 7.7 3.5 11.3 4.9l.6-34.5c-1.2-.6-2.3-.4-3.7-.4zM491.2 604.3c-1.4.2-1.4.5-3.1 1.4-9.4 5.2-6.1 27.2-4.6 35.5 5.8 2 9.4 3.4 13.5 3.7l.8-39.5c-2.3-1.6-4.4-1.1-6.6-1.1zM322.3 258.2S162.5 33.8 290 0C2.6 18.4-111.2 525.6 134.7 849.9c-52.3-179.8 30.7-133.7 56.9-110.7 0 0-30.7-196.7 67.6-119.9 0 0 10.8-136.8 49.2-144.5 30.8-47.5-29.2-144.4 13.9-216.6zM710 0c127.6 33.8-32.3 258.2-32.3 258.2 43 72.2-16.9 169.1 13.8 216.7 38.4 7.7 49.2 144.5 49.2 144.5 98.4-76.8 67.6 119.9 67.6 119.9 26.1-23.1 109.1-69.2 56.9 110.7C1111.2 525.6 997.4 18.4 710 0z"/></svg>