<?xml version="1.0" encoding="UTF-8"?>
<svg version="1.1" xmlns="http://www.w3.org/2000/svg" width="667" height="667">
<path d="M0 0 C1.36280913 2.72561826 1.13850953 4.88689347 1.15390015 7.93940735 C1.16250061 9.20546814 1.17110107 10.47152893 1.17996216 11.7759552 C1.18439752 13.18698079 1.18869586 14.59800682 1.19287109 16.0090332 C1.20077109 17.4888834 1.20903997 18.96873166 1.21765137 20.44857788 C1.24388221 25.31596026 1.2591795 30.18335129 1.2734375 35.05078125 C1.27879664 36.72536919 1.28417415 38.39995708 1.28956985 40.07454491 C1.31119965 47.03937821 1.3299371 54.00420918 1.34119225 60.96906757 C1.3574364 70.95602883 1.39062405 80.94260132 1.44759309 90.929416 C1.48627064 97.94858476 1.50582229 104.96764943 1.51111281 111.98692197 C1.51476915 116.18075652 1.52681989 120.37417654 1.55921555 124.56789589 C1.58925831 128.51359947 1.595622 132.45863688 1.58383179 136.40443039 C1.58361073 137.85204614 1.59194237 139.29969246 1.60948563 140.74720192 C1.63214458 142.72455209 1.62090796 144.70220384 1.60800171 146.67964172 C1.61296693 148.33912071 1.61296693 148.33912071 1.61803246 150.03212452 C0.80046106 153.958213 -1.00020023 155.43416499 -4 158 C-4.61552734 158.53101318 -5.23105469 159.06202637 -5.86523438 159.60913086 C-7.72942597 161.0712574 -9.60960672 162.50941082 -11.5 163.9375 C-12.15097656 164.45634766 -12.80195313 164.97519531 -13.47265625 165.50976562 C-15.27568781 166.8665924 -16.95832985 168.03926553 -19 169 C-21.4921875 168.609375 -21.4921875 168.609375 -24 167 C-24.56299805 166.66685791 -25.12599609 166.33371582 -25.70605469 165.99047852 C-27.70468833 164.80195565 -29.66482729 163.56335676 -31.625 162.3125 C-32.32850586 161.86841797 -33.03201172 161.42433594 -33.75683594 160.96679688 C-38.77577293 157.79477377 -43.77836685 154.5965829 -48.765625 151.375 C-50.90774462 149.9869808 -50.90774462 149.9869808 -52.984375 149.125 C-55.80298144 147.55182431 -57.72986349 145.28379146 -60 143 C-61.81805341 141.67801922 -63.67456064 140.40759687 -65.5625 139.1875 C-66.61953125 138.49785156 -67.6765625 137.80820313 -68.765625 137.09765625 C-69.83296875 136.40542969 -70.9003125 135.71320313 -72 135 C-74.88295849 133.08445138 -77.75699599 131.16355925 -80.59971619 129.18869019 C-82.93727004 127.61667668 -85.28834586 126.3466186 -87.83399963 125.14382935 C-97.7549974 120.12666312 -97.7549974 120.12666312 -99.8355217 114.90169525 C-101.12589141 108.70083631 -100.721048 102.40595171 -100.46484375 96.1171875 C-100.43682983 94.09131764 -100.41549533 92.06534541 -100.40052795 90.03933716 C-100.34353121 84.73305511 -100.19647844 79.43303561 -100.02996826 74.12921143 C-99.87589055 68.70679461 -99.80788342 63.28335468 -99.73242188 57.859375 C-99.57204829 47.23684683 -99.31641874 36.61894609 -99 26 C-85.68418367 20.50101239 -72.54178463 15.07665306 -58.5625 11.5 C-57.37591797 11.1803125 -56.18933594 10.860625 -54.96679688 10.53125 C-48.34933135 8.77148077 -41.73284588 7.2397542 -35 6 C-33.73486572 5.76442383 -32.46973145 5.52884766 -31.16625977 5.28613281 C-27.53095874 4.61189248 -23.89401886 3.94696695 -20.25634766 3.28564453 C-17.97653419 2.87072933 -15.69725003 2.45298386 -13.41796875 2.03515625 C-11.9661771 1.77066166 -10.51435529 1.50633254 -9.0625 1.2421875 C-8.3823584 1.11721893 -7.7022168 0.99225037 -7.00146484 0.86349487 C-2.22887123 0 -2.22887123 0 0 0 Z " fill="#090909" transform="translate(319,9)"/>
<path d="M0 0 C23.27763706 3.59230235 45.96947664 8.15070846 68.5625 14.9375 C70.0769873 15.386698 70.0769873 15.386698 71.62207031 15.8449707 C77.73365584 17.7400783 83.55813875 20.044959 89.39819336 22.63891602 C90.13257378 22.9627552 90.86695419 23.28659439 91.62358856 23.62024689 C93.41668855 24.41131907 95.20848102 25.20535385 97 26 C97.30177422 37.70876614 97.53247244 49.41660164 97.67355824 61.12847042 C97.74129071 66.56759821 97.83307346 72.00405827 97.98071289 77.44165039 C98.1224199 82.69387864 98.1997815 87.9435494 98.23340416 93.19754219 C98.25734794 95.19730466 98.30411295 97.19693341 98.37449074 99.19560051 C98.88920123 114.42459762 98.88920123 114.42459762 95.75866318 118.69221878 C92.29669724 121.98257569 88.28856395 123.93664946 84 126 C79.81987991 128.35718455 79.81987991 128.35718455 77 132 C75.84087478 132.69547513 74.64517342 133.33022589 73.4375 133.9375 C66.70162849 137.57593138 60.543407 142.04809725 54.27246094 146.42041016 C49.47374134 149.75600489 44.65105511 153.05717178 39.81616211 156.34008789 C36.28701765 158.73723577 32.7765473 161.14350476 29.33984375 163.671875 C27.77943359 164.79335938 27.77943359 164.79335938 26.1875 165.9375 C25.31480469 166.58589844 24.44210937 167.23429688 23.54296875 167.90234375 C21 169 21 169 18.1953125 168.5703125 C13.95969049 166.48874765 10.40305478 163.82812724 6.6875 160.9375 C5.95982422 160.38255859 5.23214844 159.82761719 4.48242188 159.25585938 C-0.74020337 155.25979663 -0.74020337 155.25979663 -2 154 C-2.10097533 152.08773696 -2.1307723 150.17169979 -2.13371277 148.2567749 C-2.13797775 147.00891708 -2.14224274 145.76105927 -2.14663696 144.47538757 C-2.14628739 143.07962033 -2.14582583 141.68385311 -2.14526367 140.28808594 C-2.14825364 138.82808852 -2.15165578 137.36809189 -2.15544128 135.90809631 C-2.16430436 131.93066973 -2.16662043 127.95326463 -2.16725707 123.97582912 C-2.16820471 120.65833471 -2.17188152 117.34084534 -2.17542917 114.02335286 C-2.18358331 106.19541625 -2.18601261 98.36749115 -2.18530273 90.53955078 C-2.18470241 82.461544 -2.19524292 74.3836041 -2.2110464 66.30561423 C-2.22412145 59.37563377 -2.22948661 52.44567516 -2.22884732 45.51568246 C-2.22859223 41.37452361 -2.23144954 37.23342411 -2.24202538 33.09227753 C-2.2517052 29.19516773 -2.25178634 25.29817398 -2.24450874 21.4010601 C-2.2434626 19.97120685 -2.24582759 18.54134638 -2.2518692 17.11150551 C-2.2595878 15.15807153 -2.25374553 13.20459805 -2.24723816 11.25115967 C-2.24778293 10.15829021 -2.24832769 9.06542076 -2.24888897 7.93943405 C-1.99351619 4.92342478 -1.2739481 2.72931639 0 0 Z " fill="#070707" transform="translate(347,9)"/>
<path d="M0 0 C3.16372604 1.88864181 6.06852776 4.08487134 9 6.3125 C10.56183936 7.47614764 12.12432596 8.63892715 13.6875 9.80078125 C14.71423828 10.57675659 14.71423828 10.57675659 15.76171875 11.3684082 C18.08497403 13.14014368 18.08497403 13.14014368 21.21704102 14.7265625 C24 17 24 17 24.78881836 20.4675293 C24.83627748 21.83570856 24.8515258 23.20526645 24.83984375 24.57421875 C24.85592178 25.29865677 24.87199982 26.02309479 24.88856506 26.76948547 C24.93245542 29.07602261 24.93485418 31.38058596 24.9375 33.6875 C24.96420887 35.2506974 24.99347727 36.81385331 25.02539062 38.37695312 C25.08722629 42.2572526 25.14730308 46.12122394 25 50 C24 51 24 51 21.09179688 51.07836914 C19.17463867 51.05697876 19.17463867 51.05697876 17.21875 51.03515625 C15.80468025 51.03887432 14.39061493 51.04480857 12.9765625 51.05273438 C10.74852328 51.06322558 8.52366187 51.06291149 6.29589844 51.02416992 C-4.26641093 50.76898264 -4.26641093 50.76898264 -13.2578125 55.8515625 C-14.51409418 57.22630724 -15.76194861 58.60881507 -17 60 C-18.43194613 61.13817855 -19.88720579 62.24836255 -21.375 63.3125 C-23.16957366 64.6011959 -24.80351499 65.79140969 -26.3190918 67.40036011 C-28 69 -28 69 -30.22436523 70.39163208 C-33.8020716 72.67079358 -36.51260682 74.45734576 -37.82470703 78.61029053 C-38.12714145 81.87221344 -38.14073491 85.02935473 -38.0625 88.3046875 C-38.07265892 90.19453369 -38.07265892 90.19453369 -38.08302307 92.12255859 C-38.09781546 94.90111345 -38.08434234 97.67762328 -38.04934692 100.45599365 C-37.99316629 104.94513101 -37.99773011 109.43296685 -38.01147461 113.92236328 C-38.02334323 118.90020033 -38.02916176 123.87784529 -38.01438904 128.85568237 C-37.97083965 143.90537991 -38.09301547 158.95120784 -38.25390625 174 C-38.26655895 175.19362278 -38.27921165 176.38724556 -38.29224777 177.61703873 C-38.34346146 182.43499642 -38.39505 187.25294971 -38.44748878 192.07089424 C-38.58631814 204.87784998 -38.70236006 217.68499101 -38.81640625 230.4921875 C-38.83523126 232.58797218 -38.85407522 234.68375669 -38.87294006 236.77954102 C-38.91555658 241.51969169 -38.95788038 246.25984488 -39 251 C-45.90331585 247.68662182 -50.51343404 241.49441651 -55.4453125 235.7734375 C-56.6038538 234.45188536 -57.81977759 233.18022241 -59.0625 231.9375 C-61.257249 229.742751 -63.24174747 227.43351563 -65.20699215 225.03225327 C-66.95691862 222.95942892 -66.95691862 222.95942892 -69.03477573 221.22778702 C-73.89902125 216.72219607 -75.55878944 213.29314836 -75.97117615 206.64935303 C-76.02708154 203.70341719 -75.98181609 200.76499929 -75.92749023 197.81933594 C-75.92682986 196.19067175 -75.92960867 194.56200311 -75.93554688 192.93334961 C-75.94098508 188.53210205 -75.89600038 184.13272198 -75.83974338 179.73188305 C-75.78744808 175.11925171 -75.7754849 170.50648385 -75.75733948 165.89361572 C-75.72038468 158.15293878 -75.65031869 150.41308728 -75.56079102 142.67285156 C-75.45775197 133.72662074 -75.40862295 124.7813037 -75.38789028 115.83453155 C-75.36656994 107.21805864 -75.30594888 98.60228325 -75.22783089 89.98615265 C-75.19538287 86.32273353 -75.17694294 82.65963955 -75.16982841 78.99608612 C-75.15976933 74.68448085 -75.11538719 70.37455858 -75.04450226 66.0635376 C-75.02403152 64.4822094 -75.01539633 62.90067692 -75.01947975 61.3192215 C-75.03959823 49.30876482 -75.03959823 49.30876482 -72.40992928 45.99823761 C-70.49916077 44.64605713 -70.49916077 44.64605713 -67 43 C-66.67 42.34 -66.34 41.68 -66 41 C-65.01 41 -64.02 41 -63 41 C-62.67 40.34 -62.34 39.68 -62 39 C-60.73736893 37.98366692 -59.44051638 37.00938267 -58.125 36.0625 C-56.0889748 34.59370691 -54.1970738 33.19903473 -52.4296875 31.4140625 C-50.58635228 29.59087302 -48.43469417 28.55223477 -46.1796875 27.30859375 C-37.99189649 22.73515753 -37.99189649 22.73515753 -32 16 C-31.113125 15.566875 -30.22625 15.13375 -29.3125 14.6875 C-26.65234833 13.3323284 -24.94484627 12.22153091 -22.75 10.3125 C-20 8 -20 8 -18 8 C-17.67 7.01 -17.34 6.02 -17 5 C-15.35448038 4.28272222 -13.68577711 3.61674772 -12 3 C-11.34 2.34 -10.68 1.68 -10 1 C-6.39173788 -1.44846358 -4.14482804 -1.1450324 0 0 Z " fill="#0E0E0E" transform="translate(295,346)"/>
<path d="M0 0 C4.81866632 0.23359186 7.47186505 1.71828507 11.1875 4.6875 C12.73824219 5.89792969 12.73824219 5.89792969 14.3203125 7.1328125 C14.8968457 7.5855957 15.47337891 8.03837891 16.06738281 8.50488281 C19.84609573 11.42818219 23.71100117 14.23625824 27.5625 17.0625 C28.39217285 17.67303223 29.2218457 18.28356445 30.07666016 18.91259766 C37.50695074 24.38000264 44.95711345 29.81828174 52.453125 35.1953125 C53.25290771 35.77015381 54.05269043 36.34499512 54.87670898 36.93725586 C56.4607386 38.07546457 58.04611725 39.211799 59.63305664 40.34594727 C60.36903076 40.87502686 61.10500488 41.40410645 61.86328125 41.94921875 C62.51594971 42.41674561 63.16861816 42.88427246 63.84106445 43.3659668 C64.55351318 43.90519775 65.26596191 44.44442871 66 45 C67.01756473 45.7169765 68.03512945 46.433953 69.08352947 47.17265606 C71.58135879 49.27703492 71.96301781 49.84858638 72.78018665 53.19426441 C72.79413817 54.40776412 72.80808969 55.62126383 72.82246399 56.87153625 C72.83817403 57.55055612 72.85388406 58.22957599 72.87007016 58.92917222 C72.91498062 61.19852039 72.91718272 63.46583419 72.91918945 65.7355957 C72.94206276 67.36555896 72.96734678 68.9954899 72.99485779 70.62538147 C73.06067598 75.05170091 73.08708939 79.47739863 73.10233712 83.90415215 C73.11328011 86.67549157 73.13200721 89.44666934 73.15334129 92.21794701 C73.22685076 101.90391527 73.26597885 111.58940191 73.27661133 121.27563477 C73.28748694 130.27390631 73.37693032 139.26908865 73.50282508 148.2664178 C73.60735297 156.01118353 73.65326391 163.75493391 73.65534943 171.50039929 C73.6577164 176.11763438 73.68336283 180.73173035 73.76934242 185.34823036 C74.32489577 217.11759178 74.32489577 217.11759178 66.85818005 225.91123486 C64.36766634 228.33644742 61.76656298 230.44143642 58.94508934 232.46765709 C55.48207252 235.19582446 52.80485316 238.6220518 50 242 C48.08073369 244.1833984 46.13733659 246.34390425 44.1875 248.5 C43.71119141 249.03625 43.23488281 249.5725 42.74414062 250.125 C41.53754969 251.45547439 40.27320728 252.73312708 39 254 C38.34 254 37.68 254 37 254 C37 195.92 37 137.84 37 78 C35.68 77.34 34.36 76.68 33 76 C30.91744877 74.32380023 28.88952829 72.62877577 26.875 70.875 C25.71834903 69.88176217 24.56078706 68.8895843 23.40234375 67.8984375 C22.82983887 67.40827148 22.25733398 66.91810547 21.66748047 66.41308594 C17.85465861 63.18195666 13.93881771 60.07561456 10 57 C9.44868408 56.48139404 8.89736816 55.96278809 8.3293457 55.4284668 C5.05403795 53.41989058 2.43255353 53.56413797 -1.390625 53.48828125 C-2.44754547 53.46135445 -2.44754547 53.46135445 -3.52581787 53.43388367 C-5.76715179 53.37988142 -8.00827405 53.34591912 -10.25 53.3125 C-11.77346689 53.27931782 -13.29690589 53.24482731 -14.8203125 53.20898438 C-18.5466716 53.12416262 -22.27310463 53.05730276 -26 53 C-26.27382288 48.44726373 -26.47230307 43.89939079 -26.60424805 39.34033203 C-26.65927006 37.79358419 -26.73412755 36.24740097 -26.82983398 34.70263672 C-27.13741572 29.6069778 -27.20297417 24.98607123 -26 20 C-22.76948713 16.35630435 -19.23809803 14.30326879 -15 12 C-14.67 11.34 -14.34 10.68 -14 10 C-12.61024048 9.18164987 -11.1877413 8.41827248 -9.75 7.6875 C-6.57793937 6.00876333 -4.81496009 4.80205033 -2.3125 2.125 C-1.549375 1.42375 -0.78625 0.7225 0 0 Z " fill="#0C0C0C" transform="translate(371,344)"/>
<path d="M0 0 C0.86625 0.474375 1.7325 0.94875 2.625 1.4375 C3.78 2.05625 4.935 2.675 6.125 3.3125 C8.16350981 4.45675787 9.89175657 5.65756946 11.70068359 7.14990234 C15.42022666 10.05957997 19.31762016 12.63507638 23.2578125 15.234375 C24.0902951 15.78683899 24.92277771 16.33930298 25.78048706 16.9085083 C29.32040239 19.25763567 32.86390419 21.60132857 36.40722656 23.9453125 C54.07313216 35.63955205 54.07313216 35.63955205 62.31689453 41.734375 C65.98221933 44.43897684 69.71675358 47.0263237 73.5 49.5625 C74.21929687 50.0678125 74.93859375 50.573125 75.6796875 51.09375 C77.63618708 52.39568538 79.45014893 53.54707185 81.625 54.4375 C85.8158376 53.59359161 88.36600369 51.12617195 91.625 48.4375 C92.49125 47.921875 93.3575 47.40625 94.25 46.875 C96.58117439 45.59908238 96.58117439 45.59908238 97.99609375 44.03515625 C99.8726614 42.1945899 101.85723401 40.86553059 104.0625 39.4375 C106.37313173 37.93617583 108.61290534 36.44694827 110.78515625 34.75 C112.625 33.4375 112.625 33.4375 114.625 33.4375 C114.89848814 38.55995199 115.0971808 43.67810124 115.22924805 48.80615234 C115.28432002 50.54681435 115.3592122 52.28697303 115.45483398 54.02587891 C116.23128224 68.51681168 116.23128224 68.51681168 112.19775391 73.33984375 C109.42082068 75.34558295 106.68832117 76.9193323 103.625 78.4375 C102.965 79.0975 102.305 79.7575 101.625 80.4375 C100.366776 81.28975241 99.09352746 82.11992403 97.8125 82.9375 C93.6332203 85.68738436 89.64839598 88.63633878 85.6875 91.6875 C85.11990967 92.12384766 84.55231934 92.56019531 83.9675293 93.00976562 C81.74104764 94.73591809 79.61920184 96.44329816 77.625 98.4375 C76.34676055 99.31163236 75.05260594 100.16261047 73.75 101 C70.88895642 102.85643766 68.20681082 104.77152199 65.5390625 106.90234375 C65.01425293 107.3212085 64.48944336 107.74007324 63.94873047 108.17163086 C62.42962032 109.39356479 60.92542728 110.63397272 59.421875 111.875 C56.625 113.4375 56.625 113.4375 54.296875 113.05859375 C50.43772989 110.71715337 46.77626995 108.15174269 43.125 105.5 C38.70391454 102.31208432 34.3323414 99.19465711 29.625 96.4375 C28.44264527 95.6051845 27.27543814 94.75090176 26.125 93.875 C25.45210937 93.36582031 24.77921875 92.85664063 24.0859375 92.33203125 C22.1459822 90.8385736 20.21552932 89.33492866 18.2890625 87.82421875 C17.41411133 87.14178101 17.41411133 87.14178101 16.52148438 86.44555664 C15.35015567 85.53106145 14.182115 84.6123375 13.01757812 83.68920898 C10.16048151 81.21877675 10.16048151 81.21877675 6.625 80.4375 C4.95833333 78.77083333 3.29166667 77.10416667 1.625 75.4375 C-0.54120544 74.14230005 -0.54120544 74.14230005 -2.375 73.4375 C-2.375 72.7775 -2.375 72.1175 -2.375 71.4375 C-2.91125 71.210625 -3.4475 70.98375 -4 70.75 C-10.41264818 67.20616811 -10.41264818 67.20616811 -12.375 64.4375 C-13.28367579 60.27033606 -13.1917583 56.16100477 -13.13671875 51.91015625 C-13.14008743 50.68848251 -13.14345612 49.46680878 -13.14692688 48.20811462 C-13.14662812 45.62673734 -13.13138762 43.04532469 -13.10229492 40.46411133 C-13.06267354 36.51728712 -13.0815738 32.57383145 -13.10742188 28.62695312 C-13.09986149 26.11717448 -13.08890676 23.6074033 -13.07421875 21.09765625 C-13.08120285 19.91937759 -13.08818695 18.74109894 -13.09538269 17.52711487 C-12.93857112 8.40530552 -12.93857112 8.40530552 -9.98754883 4.77124023 C-3.67256219 -0.86981736 -3.67256219 -0.86981736 0 0 Z " fill="#0B0B0B" transform="translate(171.375,248.5625)"/>
<path d="M0 0 C1.67529898 0.98546999 3.33973644 1.98940479 5 3 C6.03141113 3.42619629 7.06282227 3.85239258 8.12548828 4.29150391 C11.50142716 7.47246755 11.48697228 8.30455987 11.80810547 12.77490234 C11.86131877 15.21141262 11.87862451 17.64887304 11.8671875 20.0859375 C11.8776712 21.37561432 11.88815491 22.66529114 11.8989563 23.99404907 C11.91681148 26.72299332 11.91198728 29.45076701 11.89208984 32.1796875 C11.86913408 35.66683099 11.90947364 39.14991614 11.96792412 42.63652611 C12.01359012 45.97404037 11.99970892 49.31061874 11.9921875 52.6484375 C12.01465546 53.89547455 12.03712341 55.1425116 12.06027222 56.42733765 C11.92392935 64.91418708 11.92392935 64.91418708 9.22271729 68.08868408 C7.21254504 69.5972364 5.20406797 70.80197088 3 72 C2.34 72.66 1.68 73.32 1 74 C-0.33729648 74.92335451 -1.69126112 75.82271573 -3.0546875 76.70703125 C-7.8656543 79.87942466 -12.50249184 83.24825738 -17.125 86.6875 C-18.78238929 87.91558432 -20.43994369 89.14344584 -22.09765625 90.37109375 C-22.91637207 90.97808105 -23.73508789 91.58506836 -24.57861328 92.21044922 C-26.87855448 93.91024444 -29.18526158 95.60020657 -31.49609375 97.28515625 C-32.18493652 97.78764893 -32.8737793 98.2901416 -33.58349609 98.80786133 C-34.87327691 99.74774971 -36.16392566 100.68644857 -37.45556641 101.6237793 C-39.7785467 103.31913018 -41.96288494 104.96288494 -44 107 C-45.41679765 108.04937665 -46.85728423 109.0670835 -48.3125 110.0625 C-49.07175781 110.58972656 -49.83101563 111.11695313 -50.61328125 111.66015625 C-53.21310034 113.11962916 -55.01743509 113.84874473 -58 114 C-60.0078125 112.83984375 -60.0078125 112.83984375 -62.125 110.9375 C-66.87097208 106.89255777 -71.77071897 103.16974861 -76.8125 99.5 C-84.91416095 93.57361958 -92.91837685 87.52832522 -100.88208008 81.41796875 C-102.12380981 80.46664062 -102.12380981 80.46664062 -103.390625 79.49609375 C-104.5652832 78.59479736 -104.5652832 78.59479736 -105.76367188 77.67529297 C-107.82350185 76.13221947 -109.92085322 74.67226571 -112.046875 73.22265625 C-115 71 -115 71 -116 68 C-116.01623075 65.48277556 -115.97509148 63.00133305 -115.87890625 60.48828125 C-115.85529526 59.76005661 -115.83168427 59.03183197 -115.80735779 58.28153992 C-115.7308565 55.9583216 -115.6467744 53.63544807 -115.5625 51.3125 C-115.50926573 49.73634493 -115.45652542 48.16017309 -115.40429688 46.58398438 C-115.27525978 42.7224384 -115.13942375 38.86118434 -115 35 C-110.33806454 35.7573683 -107.59278455 37.54821523 -104 40.5 C-102.8600855 41.4061833 -101.71809486 42.30976011 -100.57421875 43.2109375 C-99.98946777 43.67209961 -99.4047168 44.13326172 -98.80224609 44.60839844 C-95.86966911 46.87278327 -92.8535976 49.00960291 -89.8125 51.125 C-88.74644531 51.87007813 -87.68039062 52.61515625 -86.58203125 53.3828125 C-84.22527996 55.17693515 -84.22527996 55.17693515 -82 55 C-81.34 54.34 -80.68 53.68 -80 53 C-78.66666667 52.33333333 -77.33333333 51.66666667 -76 51 C-75.34 50.34 -74.68 49.68 -74 49 C-72.20617854 47.7844684 -70.39080215 46.60052354 -68.5625 45.4375 C-67.11037109 44.50744141 -67.11037109 44.50744141 -65.62890625 43.55859375 C-63 42 -63 42 -60 41 C-60 40.34 -60 39.68 -60 39 C-59.01 39 -58.02 39 -57 39 C-56.505 38.01 -56.505 38.01 -56 37 C-50.47058824 33 -50.47058824 33 -48 33 C-48 32.34 -48 31.68 -48 31 C-47.39671875 30.67386719 -46.7934375 30.34773438 -46.171875 30.01171875 C-45.37265625 29.57472656 -44.5734375 29.13773437 -43.75 28.6875 C-42.96109375 28.25824219 -42.1721875 27.82898438 -41.359375 27.38671875 C-38.96827026 26.0465516 -38.96827026 26.0465516 -36.828125 24.33203125 C-35 23 -35 23 -33 23 C-32.67 22.34 -32.34 21.68 -32 21 C-26.47058824 17 -26.47058824 17 -24 17 C-24 16.34 -24 15.68 -24 15 C-23.52433594 14.75507813 -23.04867187 14.51015625 -22.55859375 14.2578125 C-14.68399271 10.05222447 -7.37826943 5.00633565 0 0 Z " fill="#090909" transform="translate(494,248)"/>
<path d="M0 0 C3.3367032 1.29375101 6.1124692 2.60636889 9.00390625 4.72265625 C9.73939697 5.25705322 10.4748877 5.7914502 11.23266602 6.34204102 C12.00151123 6.90979248 12.77035645 7.47754395 13.5625 8.0625 C14.35519287 8.64378662 15.14788574 9.22507324 15.96459961 9.82397461 C17.56134426 10.9963439 19.15650148 12.17087856 20.75 13.34765625 C22.75869488 14.82279155 24.78077085 16.27561191 26.8125 17.71875 C27.89606601 18.49967726 28.97941727 19.28090262 30.0625 20.0625 C31.00222656 20.73410156 31.94195312 21.40570313 32.91015625 22.09765625 C35.30203338 24.27493505 35.49279477 24.89165737 36 28 C36.09023057 30.28488637 36.12196098 32.57228111 36.12025452 34.85894775 C36.12110894 35.54840225 36.12196337 36.23785675 36.12284368 36.9482038 C36.12449026 39.25748786 36.11899057 41.5666992 36.11352539 43.87597656 C36.11324332 45.53171792 36.11340165 47.1874594 36.1139679 48.84320068 C36.11425508 53.33869915 36.1083711 57.834171 36.10139394 62.32966328 C36.09514726 67.02753375 36.09455556 71.72540482 36.09336853 76.42327881 C36.0902591 85.31964248 36.08205092 94.21599387 36.07201904 103.11235213 C36.06084587 113.24042464 36.05534441 123.36849774 36.05032361 133.49657488 C36.039868 154.33105677 36.02227605 175.16552761 36 196 C32.89448334 196 31.64738916 195.4606285 29 194 C29 193.01 29 192.02 29 191 C28.44513916 190.77183594 27.89027832 190.54367187 27.31860352 190.30859375 C24.33750596 188.62609581 22.29996495 186.50591329 19.90234375 184.0625 C19.42680557 183.58176025 18.9512674 183.10102051 18.46131897 182.60571289 C16.94852486 181.07517199 15.44260912 179.53809583 13.9375 178 C12.42796597 176.46279238 10.91697455 174.9270916 9.40296936 173.39428711 C8.03088294 172.00439613 6.6636314 170.60973715 5.29663086 169.21484375 C3.00990874 166.87782624 3.00990874 166.87782624 0 165 C-0.36914349 162.17703819 -0.36914349 162.17703819 -0.36076355 158.49545288 C-0.36332682 157.81995789 -0.3658901 157.1444629 -0.36853105 156.44849837 C-0.37349124 154.17424799 -0.35694011 151.90065454 -0.34057617 149.62646484 C-0.33973038 148.00057491 -0.34020411 146.37468382 -0.34190369 144.74879456 C-0.34276693 140.32540069 -0.32508809 135.90224924 -0.30418181 131.47891188 C-0.28546973 126.8597838 -0.2836689 122.24065061 -0.28010559 117.62149048 C-0.27076901 108.87021777 -0.24613346 100.11905705 -0.21605712 91.36783373 C-0.18256323 81.40668673 -0.16603973 71.44553447 -0.15097082 61.4843452 C-0.11958527 40.98950088 -0.0667935 20.49475748 0 0 Z " fill="#080808" transform="translate(159,341)"/>
<path d="M0 0 C0.37483227 21.10591083 0.65642418 42.21126811 0.82899475 63.31983948 C0.91127698 73.12256555 1.02331226 82.92321622 1.20703125 92.72460938 C1.36720798 101.2741476 1.46989179 109.82218233 1.50541592 118.37317944 C1.5261648 122.89607752 1.57440648 127.41467729 1.69168091 131.93618774 C2.46986992 163.10351321 2.46986992 163.10351321 -5.73609924 172.25486755 C-14.04431412 180 -14.04431412 180 -18 180 C-18.23074219 180.5671875 -18.46148437 181.134375 -18.69921875 181.71875 C-20.33335994 184.58463124 -22.33309884 186.32913002 -24.8125 188.5 C-25.66457031 189.2528125 -26.51664062 190.005625 -27.39453125 190.78125 C-29.89091747 192.90710813 -32.43533793 194.9574863 -35 197 C-35.23363939 174.43436716 -35.40996161 151.86893382 -35.51812172 129.30233669 C-35.56967836 118.82411192 -35.6399616 108.34663879 -35.75439453 97.86889648 C-35.85409164 88.73604379 -35.91858756 79.6037354 -35.94088495 70.47035366 C-35.95391889 65.63428395 -35.98452717 60.79977134 -36.05730057 55.96420097 C-36.12527173 51.41075692 -36.14609946 46.85950813 -36.13107681 42.30560493 C-36.13382406 40.63620181 -36.15366814 38.966724 -36.19205475 37.29776001 C-36.46765312 24.69531372 -36.46765312 24.69531372 -32.86524582 20.5341053 C-30.31568627 18.72844489 -27.80290399 17.36828198 -25 16 C-23.38879385 14.88789155 -21.79434708 13.75065303 -20.2265625 12.578125 C-19.46472656 12.02769531 -18.70289063 11.47726562 -17.91796875 10.91015625 C-16.78294922 10.08837891 -16.78294922 10.08837891 -15.625 9.25 C-14.84511719 8.68667969 -14.06523437 8.12335938 -13.26171875 7.54296875 C-9.03925765 4.51121455 -9.03925765 4.51121455 -4.93896484 1.31933594 C-3 0 -3 0 0 0 Z " fill="#050505" transform="translate(505,342)"/>
<path d="M0 0 C3.46790796 0.63329565 5.8123199 1.26032325 8.6796875 3.3359375 C9.35443115 3.81788574 10.0291748 4.29983398 10.72436523 4.79638672 C11.43407471 5.3173291 12.14378418 5.83827148 12.875 6.375 C13.61371338 6.91012207 14.35242676 7.44524414 15.11352539 7.99658203 C16.64802979 9.10928186 18.18031903 10.22504259 19.71044922 11.34375 C21.91330637 12.93728625 24.1396698 14.4893975 26.37890625 16.03125 C27.73197452 16.9788759 29.08484802 17.92677998 30.4375 18.875 C31.06962402 19.30216309 31.70174805 19.72932617 32.35302734 20.16943359 C36.44340863 23.08500225 37.74250209 25.20693423 39 30 C39.2784729 32.83062744 39.2784729 32.83062744 39.31884766 35.79785156 C39.33868713 36.92454254 39.35852661 38.05123352 39.37896729 39.21206665 C39.39054871 40.42599091 39.40213013 41.63991516 39.4140625 42.890625 C39.43370056 44.16827728 39.45333862 45.44592957 39.47357178 46.76229858 C39.52589553 50.21214464 39.56587232 53.66201933 39.60210419 57.11206818 C39.62499577 59.24960521 39.65035694 61.38709851 39.67657471 63.52459717 C39.75540737 69.96342633 39.82885144 76.40226096 39.89152336 82.84126854 C39.95802213 89.64109311 40.05285718 96.43976684 40.17947388 103.23876953 C40.24867632 107.14272576 40.29758285 111.04671964 40.34002686 114.9510498 C40.36320775 116.72339701 40.3947264 118.49565617 40.43487549 120.2677002 C40.48789261 122.69188647 40.50978061 125.11438235 40.5234375 127.5390625 C40.54605652 128.23196381 40.56867554 128.92486511 40.59197998 129.63876343 C40.575477 133.4083895 40.10442203 134.87527972 37.65136719 137.80517578 C36.77641602 138.52946777 35.90146484 139.25375977 35 140 C34.02804687 140.85078125 33.05609375 141.7015625 32.0546875 142.578125 C30.99700559 143.47137807 29.93702498 144.36191498 28.875 145.25 C28.30950439 145.72526123 27.74400879 146.20052246 27.16137695 146.69018555 C19.25481285 153.32124736 11.33506281 159.90991113 3 166 C2.080702 163.242106 1.85696003 161.52867872 1.81054688 158.6784668 C1.7937941 157.78285034 1.77704132 156.88723389 1.75978088 155.96447754 C1.7394706 154.47192444 1.7394706 154.47192444 1.71875 152.94921875 C1.70065781 151.8756311 1.68256561 150.80204346 1.66392517 149.69592285 C1.60406141 146.02651099 1.55183741 142.35703351 1.5 138.6875 C1.45978842 136.07267142 1.41950284 133.45784398 1.37915039 130.84301758 C0.7240713 87.23147874 0.39351571 43.61449812 0 0 Z " fill="#0D0D0D" transform="translate(345,485)"/>
<path d="M0 0 C0.10300091 35.62243396 0.14237475 71.24167084 -0.40571976 106.86090851 C-0.43699954 108.90479901 -0.46712159 110.94870391 -0.49703979 112.99261475 C-0.75757525 130.34012339 -1.24781307 147.66673795 -2 165 C-5.84909308 163.16813407 -9.05182063 160.76884775 -12.375 158.125 C-12.98206787 157.64538818 -13.58913574 157.16577637 -14.21459961 156.67163086 C-20.40839704 151.74096352 -26.40872103 146.58967804 -32.36938477 141.38110352 C-34.09166283 139.86471527 -34.09166283 139.86471527 -36.56544495 138.32319641 C-39 136 -39 136 -39.60800171 133.00332642 C-39.59587143 131.24331802 -39.59587143 131.24331802 -39.58349609 129.44775391 C-39.5857787 128.79552133 -39.58806131 128.14328875 -39.59041309 127.47129154 C-39.5918991 125.30558894 -39.5577304 123.14197063 -39.5234375 120.9765625 C-39.51743319 119.44758275 -39.51359421 117.91859314 -39.51179504 116.38960266 C-39.50025092 112.30884249 -39.45722614 108.22902847 -39.40545273 104.14860153 C-39.35485235 99.95537502 -39.32417211 95.76199212 -39.2902832 91.56860352 C-39.24816746 86.60110011 -39.20124993 81.63374979 -39.13868713 76.66645813 C-39.03987699 68.73007466 -38.98546095 60.80279287 -39.10290527 52.86590576 C-39.15409001 49.32747938 -39.16730677 45.7896739 -39.17095947 42.25091553 C-39.18186021 40.7263004 -39.21069334 39.20169264 -39.25872803 37.67779541 C-39.58858971 26.68829068 -39.58858971 26.68829068 -35.54150391 22.38720703 C-32.77730585 20.35772154 -29.99471839 18.66144749 -27 17 C-26.34 16.34 -25.68 15.68 -25 15 C-23.36880723 13.93555322 -21.72019655 12.89768223 -20.0625 11.875 C-14.93820351 8.66809508 -10.10995071 5.17869771 -5.3125 1.50390625 C-3 0 -3 0 0 0 Z " fill="#0E0E0E" transform="translate(319,485)"/>
<path d="M0 0 C4.77197309 0.49304519 7.41440231 2.56128103 11.125 5.5 C15.24821983 8.83099422 15.24821983 8.83099422 20 11 C21.14522181 12.1579465 22.28783493 13.31860822 23.41601562 14.49316406 C26.72940454 17.64517337 30.54763747 20.20396851 34.25 22.875 C36.70234587 24.65461303 39.14769239 26.43506671 41.55883789 28.27026367 C43.94714603 30.05768871 43.94714603 30.05768871 46.59545898 31.28637695 C49.57731402 32.94838007 51.11275156 34.1271343 53 37 C54.49667057 43.655542 53.8417037 50.67749267 53.5625 57.4375 C53.51732103 59.33258761 53.4762624 61.22777822 53.43945312 63.12304688 C53.34061233 67.75125103 53.18552772 72.37449269 53 77 C38.62004826 76.14850812 28.3437114 68.87936294 17.08251953 60.52294922 C12.87513116 57.44608068 8.58714838 54.48230393 4.3125 51.5 C3.43835449 50.88825928 2.56420898 50.27651855 1.66357422 49.64624023 C-4.12715755 44.92350623 -4.12715755 44.92350623 -10.859375 43.16015625 C-14.2903685 44.07764829 -16.40278198 45.33702167 -19.25 47.4375 C-20.10078125 48.05496094 -20.9515625 48.67242187 -21.828125 49.30859375 C-24.0475037 50.96522554 -24.0475037 50.96522554 -26 53 C-27.60868453 54.06669046 -29.23685637 55.10412788 -30.875 56.125 C-35.13509098 58.8093638 -39.36425494 61.53223879 -43.5625 64.3125 C-44.55378906 64.96863281 -45.54507812 65.62476563 -46.56640625 66.30078125 C-49.03671394 67.92007851 -49.03671394 67.92007851 -51 70 C-53.66690087 71.78242365 -56.38428157 73.47514644 -59.1015625 75.1796875 C-60.87686416 76.29463437 -62.64453729 77.42199347 -64.3984375 78.5703125 C-65.09195312 79.02148438 -65.78546875 79.47265625 -66.5 79.9375 C-67.1084375 80.33839844 -67.716875 80.73929687 -68.34375 81.15234375 C-70 82 -70 82 -73 82 C-73.07421454 78.06739056 -73.12863136 74.13505278 -73.16479492 70.2019043 C-73.18728333 68.20672299 -73.22540198 66.21173787 -73.26367188 64.21679688 C-73.27333984 62.96318359 -73.28300781 61.70957031 -73.29296875 60.41796875 C-73.3086792 59.26063232 -73.32438965 58.1032959 -73.34057617 56.91088867 C-73 54 -73 54 -71.61206055 52.19042969 C-69.65421242 50.7446524 -67.6722676 49.37959878 -65.625 48.0625 C-62.26129772 45.85981754 -59.11733449 43.54308866 -56 41 C-54.77880164 40.07274435 -53.54915367 39.15654078 -52.3125 38.25 C-51.73113281 37.82203125 -51.14976562 37.3940625 -50.55078125 36.953125 C-49 36 -49 36 -47 36 C-47 35.34 -47 34.68 -47 34 C-46.00355469 33.45472656 -45.00710938 32.90945312 -43.98046875 32.34765625 C-39.86745617 29.99662389 -36.10268087 27.2715303 -32.3125 24.4375 C-31.66216797 23.95603516 -31.01183594 23.47457031 -30.34179688 22.97851562 C-27.76050927 21.06557364 -25.19051677 19.1503072 -22.66796875 17.16015625 C-21 16 -21 16 -19 16 C-19 15.34 -19 14.68 -19 14 C-17.23289901 12.76564939 -15.40980432 11.61073584 -13.5625 10.5 C-9.62163235 8.37758703 -9.62163235 8.37758703 -7 5 C-6.01 5 -5.02 5 -4 5 C-4 4.34 -4 3.68 -4 3 C-3.01 3 -2.02 3 -1 3 C-0.67 2.01 -0.34 1.02 0 0 Z " fill="#0E0E0E" transform="translate(452,144)"/>
<path d="M0 0 C4.8116672 1.23135163 7.77818675 3.47852869 11.61328125 6.53515625 C12.92923755 7.56122073 14.24810984 8.58355984 15.5703125 9.6015625 C16.43039917 10.28327515 16.43039917 10.28327515 17.30786133 10.97875977 C18.7793334 12.15737827 18.7793334 12.15737827 20.80078125 11.97265625 C21.97073028 13.14898682 23.13760398 14.32854901 24.28808594 15.52392578 C27.06154026 18.18010363 30.26466028 20.24522071 33.42578125 22.41015625 C40.70564399 27.46703246 47.91982339 32.6036786 54.95092773 38.00341797 C58.48896174 40.69336603 61.78438766 43.10379153 65.890625 44.83984375 C72.99343715 48.1868801 72.99343715 48.1868801 74.80078125 51.97265625 C76.38107987 61.5066413 75.5855721 71.38892038 74.80078125 80.97265625 C71.00221572 80.33498991 68.45582937 78.58187853 65.3046875 76.421875 C64.24137207 75.69790527 63.17805664 74.97393555 62.08251953 74.22802734 C60.9995459 73.48375488 59.91657227 72.73948242 58.80078125 71.97265625 C56.81036379 70.62430894 54.81948654 69.27664011 52.828125 67.9296875 C50.79795055 66.54851 48.76800791 65.16699172 46.73828125 63.78515625 C45.66425049 63.05627197 44.59021973 62.3273877 43.48364258 61.57641602 C38.33183402 58.07654815 33.19461704 54.5598355 28.09765625 50.98046875 C27.23019775 50.37485107 26.36273926 49.7692334 25.46899414 49.14526367 C23.8533246 48.01520133 22.24283054 46.87769146 20.63842773 45.73168945 C19.92243408 45.23241943 19.20644043 44.73314941 18.46875 44.21875 C17.85281982 43.78232178 17.23688965 43.34589355 16.60229492 42.89624023 C14.54494447 41.66851534 14.54494447 41.66851534 10.80078125 41.97265625 C8.9805984 42.87543766 8.9805984 42.87543766 7.25390625 44.2109375 C6.58182129 44.69602783 5.90973633 45.18111816 5.21728516 45.6809082 C4.50233887 46.21031006 3.78739258 46.73971191 3.05078125 47.28515625 C1.52277958 48.39021417 -0.00588221 49.49435981 -1.53515625 50.59765625 C-2.31084961 51.16097656 -3.08654297 51.72429687 -3.88574219 52.3046875 C-9.32918436 56.22929672 -14.87535386 60.00779811 -20.43017578 63.77246094 C-22.0435002 64.86701005 -23.65097937 65.97016227 -25.2578125 67.07421875 C-32.11910682 71.64841496 -40.59807799 77.03686519 -49.19921875 75.97265625 C-51.73144129 72.17432245 -51.5051151 69.09389531 -51.5 64.69140625 C-51.50428513 63.88151245 -51.50857025 63.07161865 -51.51298523 62.23718262 C-51.51872513 60.52580703 -51.51923129 58.81440705 -51.51489258 57.10302734 C-51.51173042 54.48232541 -51.53520247 51.86275003 -51.56054688 49.2421875 C-51.56281966 47.57942851 -51.56352346 45.91666648 -51.5625 44.25390625 C-51.57631462 43.07725403 -51.57631462 43.07725403 -51.59040833 41.87683105 C-51.54453663 36.4944531 -51.54453663 36.4944531 -49.86401367 33.95507812 C-48.19921875 32.97265625 -48.19921875 32.97265625 -45.19921875 32.97265625 C-45.19921875 32.31265625 -45.19921875 31.65265625 -45.19921875 30.97265625 C-43.55365309 29.93830069 -41.88215795 28.94502112 -40.19921875 27.97265625 C-38.51665745 26.65943767 -36.84924703 25.32652561 -35.19921875 23.97265625 C-31.44921875 20.97265625 -31.44921875 20.97265625 -29.19921875 20.97265625 C-28.86921875 19.98265625 -28.53921875 18.99265625 -28.19921875 17.97265625 C-26.46734017 16.95967067 -24.73116954 15.95217564 -22.9609375 15.0078125 C-21.03359214 13.97465048 -21.03359214 13.97465048 -19.19921875 11.97265625 C-15.80850578 8.58194328 -11.74900039 6.48925013 -7.19921875 4.97265625 C-6.86921875 3.98265625 -6.53921875 2.99265625 -6.19921875 1.97265625 C-3.19921875 -0.02734375 -3.19921875 -0.02734375 0 0 Z " fill="#0D0D0D" transform="translate(210.19921875,145.02734375)"/>
<path d="M0 0 C16.5 0 33 0 50 0 C50.60163214 20.40201435 50.60163214 20.40201435 50.73242188 29.17578125 C50.82171973 35.13764517 50.9267019 41.09601787 51.1315918 47.05517578 C51.29596445 51.86664459 51.38453221 56.67436828 51.42315865 61.48843002 C51.45063727 63.31399369 51.50430538 65.13937766 51.58595085 66.96332169 C52.22842074 81.92677514 52.22842074 81.92677514 46.77175903 88.16204834 C43.1158101 91.80015389 39.12924333 94.92318652 35 98 C32.92455977 99.61029212 30.96214077 101.24741772 29 103 C29 103.66 29 104.32 29 105 C23.91880745 103.67645583 20.58772347 101.32612234 16.75 97.875 C15.70463113 96.9540168 14.65770603 96.03479754 13.609375 95.1171875 C13.08739532 94.63583344 12.56541565 94.15447937 12.02761841 93.65853882 C10.01327805 91.90883194 10.01327805 91.90883194 7.49435425 90.61904907 C3.90026719 88.43385305 0.70165759 86.3449765 -0.5592804 82.13085556 C-1.43562204 76.40349789 -1.14576229 70.61510551 -0.9765625 64.84375 C-0.95789158 62.97192169 -0.94366625 61.10004423 -0.9336853 59.22814941 C-0.89565517 54.32119821 -0.79756801 49.4172471 -0.68664551 44.51147461 C-0.56594117 38.61488853 -0.52037372 32.71729431 -0.46211243 26.81982422 C-0.36540947 17.87780174 -0.17375032 8.94235004 0 0 Z " fill="#0C0C0C" transform="translate(306,242)"/>
<path d="M0 0 C1.4027649 -0.02375774 2.80552568 -0.04775954 4.20828247 -0.07199097 C7.14517586 -0.11531697 10.0813689 -0.13668019 13.01855469 -0.14599609 C15.99593624 -0.15894229 18.96750862 -0.21414023 21.94335938 -0.31005859 C38.80482164 -0.84452956 52.54345842 -0.96479035 65.76220703 11.04345703 C66.72949823 12.00031941 67.68947099 12.96483064 68.6328125 13.9453125 C69.1278125 14.4403125 69.1278125 14.4403125 69.6328125 14.9453125 C69.79151765 16.69389984 69.88415528 18.44855617 69.94921875 20.203125 C70.0121814 21.84498779 70.0121814 21.84498779 70.07641602 23.52001953 C70.11565186 24.69161621 70.1548877 25.86321289 70.1953125 27.0703125 C70.237771 28.24835449 70.28022949 29.42639648 70.32397461 30.64013672 C70.6120119 39.07957125 70.75821246 47.50171489 70.6328125 55.9453125 C67.08541252 55.9453125 66.52826905 55.339862 63.875 53.13671875 C63.16730469 52.55470703 62.45960938 51.97269531 61.73046875 51.37304688 C60.99699219 50.75751953 60.26351562 50.14199219 59.5078125 49.5078125 C58.76660156 48.89615234 58.02539062 48.28449219 57.26171875 47.65429688 C51.93687996 43.24937996 51.93687996 43.24937996 50.6328125 41.9453125 C43.72253065 40.97361609 36.85715377 40.71251524 29.88671875 40.55859375 C28.79439438 40.53306931 27.70207001 40.50754486 26.5766449 40.48124695 C24.28495074 40.42954211 21.99320494 40.38008198 19.70141602 40.33276367 C16.18148359 40.25751687 12.66213817 40.16701977 9.14257812 40.07617188 C6.91147846 40.02771037 4.68035895 39.98015194 2.44921875 39.93359375 C1.39408585 39.90453445 0.33895294 39.87547516 -0.74815369 39.84553528 C-2.20590965 39.82011909 -2.20590965 39.82011909 -3.69311523 39.79418945 C-4.5497728 39.77499954 -5.40643036 39.75580963 -6.28904724 39.73603821 C-8.59006991 39.74639544 -8.59006991 39.74639544 -10.3671875 41.9453125 C-11.70804301 42.86094956 -13.0644442 43.75395218 -14.4296875 44.6328125 C-18.65932575 47.40466281 -22.60077194 50.43193686 -26.51953125 53.625 C-28.3671875 54.9453125 -28.3671875 54.9453125 -30.3671875 54.9453125 C-30.68356841 49.05666797 -30.95284656 43.16843739 -31.17895508 37.27563477 C-31.26242782 35.2721269 -31.35867844 33.26910853 -31.46801758 31.2668457 C-31.62314095 28.38526832 -31.7319655 25.50504364 -31.83203125 22.62109375 C-31.91903542 21.28175529 -31.91903542 21.28175529 -32.00779724 19.9153595 C-32.15738096 13.79723512 -32.15738096 13.79723512 -29.84597778 11.30526733 C-28.0718489 10.04292907 -26.26875554 9.00037814 -24.3671875 7.9453125 C-23.7071875 7.2853125 -23.0471875 6.6253125 -22.3671875 5.9453125 C-15.65107925 0.08905054 -8.56862269 0.08137174 0 0 Z " fill="#121212" transform="translate(311.3671875,420.0546875)"/>
<path d="M0 0 C0.66 0.33 1.32 0.66 2 1 C2.25522707 11.17883015 2.45049366 21.35689585 2.56993389 31.53827763 C2.62727149 36.2664979 2.70498291 40.99252478 2.82983398 45.71948242 C2.94964524 50.28436622 3.01518057 54.84714578 3.04364967 59.41348076 C3.06392641 61.15246153 3.10352908 62.89133091 3.16303062 64.6294117 C3.61058385 78.24842638 3.61058385 78.24842638 -0.34408569 82.54928589 C-3.16602618 84.36137789 -5.92121652 85.68459095 -9 87 C-10.70831625 88.071679 -12.39997444 89.17107587 -14.0625 90.3125 C-14.77535156 90.78300781 -15.48820312 91.25351563 -16.22265625 91.73828125 C-18.12752065 93.01600381 -18.12752065 93.01600381 -20 95 C-23.05234935 96.83834677 -26.15087249 98.58559112 -29.25 100.34375 C-32.02548974 101.86487928 -32.02548974 101.86487928 -34 104 C-34.99 104 -35.98 104 -37 104 C-37.06945342 94.0123038 -37.12278753 84.02466488 -37.15543652 74.03677654 C-37.17110494 69.3991869 -37.19236458 64.76176225 -37.22631836 60.12426758 C-37.25887 55.65037727 -37.27684415 51.17664583 -37.28463173 46.70264626 C-37.2901828 44.99416413 -37.3010225 43.28569088 -37.31719017 41.57727623 C-37.33890904 39.18763688 -37.34196931 36.79865742 -37.34057617 34.40893555 C-37.351362 33.69971451 -37.36214783 32.99049347 -37.3732605 32.25978088 C-37.35509171 29.38724857 -37.30579083 27.45006116 -35.66621399 25.03694153 C-34 24 -34 24 -31 24 C-30.67 23.34 -30.34 22.68 -30 22 C-28.33720673 20.9935725 -26.67016516 19.99414593 -25 19 C-24.58878906 18.57203125 -24.17757812 18.1440625 -23.75390625 17.703125 C-21.18153732 15.20523445 -18.24106924 13.23958533 -15.3125 11.1875 C-14.0554735 10.2989067 -12.79896067 9.40958629 -11.54296875 8.51953125 C-10.93630371 8.08979004 -10.32963867 7.66004883 -9.70458984 7.21728516 C-6.42243311 4.87342474 -3.21079847 2.44020684 0 0 Z " fill="#060606" transform="translate(196,49)"/>
<path d="M0 0 C4.37418882 2.46928461 8.44054601 4.9370222 12.4375 8 C13.45585937 8.7734375 14.47421875 9.546875 15.5234375 10.34375 C16.68236526 11.22907033 17.84121363 12.1144946 19 13 C21.84963744 15.17269654 24.70489264 17.33780088 27.5625 19.5 C28.5987854 20.29277344 28.5987854 20.29277344 29.65600586 21.1015625 C30.30706299 21.59398438 30.95812012 22.08640625 31.62890625 22.59375 C32.20713135 23.03396484 32.78535645 23.47417969 33.38110352 23.92773438 C35.13237856 25.18869451 35.13237856 25.18869451 38 26 C38 51.74 38 77.48 38 104 C5.15898832 90.86359533 5.15898832 90.86359533 -1.03446198 77.82167053 C-4.77395641 66.26765021 -3.23081709 53.29968601 -2.26593018 41.40441895 C-1.92373473 36.72908249 -1.77672378 32.04761257 -1.61132812 27.36328125 C-1.26082253 18.22639795 -0.70069919 9.11626357 0 0 Z " fill="#0C0C0C" transform="translate(467,49)"/>
<path d="M0 0 C1.70404085 1.62843494 3.36425576 3.30297427 5 5 C7.10617667 6.70626971 9.21344491 8.36870337 11.375 10 C11.94573242 10.43642822 12.51646484 10.87285645 13.10449219 11.32250977 C16.10312111 13.60561497 19.13751323 15.81300177 22.25 17.9375 C25 20 25 20 26 23 C16.46532865 30.73133311 16.46532865 30.73133311 12 33.875 C9.04858559 35.83921677 9.04858559 35.83921677 7 38 C5.61664178 38.93538682 4.2188489 39.84954942 2.8125 40.75 C-0.10041896 42.6626161 -2.7898282 44.60270803 -5.375 46.9375 C-8.95984426 50.11123826 -12.88095665 52.5478601 -16.953125 55.05078125 C-19.17886334 56.47468308 -21.29741089 57.91938193 -23.421875 59.48046875 C-23.99663574 59.8983667 -24.57139648 60.31626465 -25.16357422 60.74682617 C-26.80139781 61.94610556 -28.42832515 63.16022321 -30.0546875 64.375 C-33 66 -33 66 -35.45239258 65.79516602 C-38.27402342 64.91447108 -39.59328731 63.94144782 -41.70703125 61.90234375 C-42.37283203 61.2688501 -43.03863281 60.63535645 -43.72460938 59.98266602 C-44.41361328 59.30776123 -45.10261719 58.63285645 -45.8125 57.9375 C-46.52083984 57.2580835 -47.22917969 56.57866699 -47.95898438 55.87866211 C-52.70076301 51.3162815 -57.41517903 46.7205558 -62 42 C-58.8790306 37.8981545 -57.00563592 35.62344949 -52 34 C-51.34 33.34 -50.68 32.68 -50 32 C-47.9858368 30.69079392 -45.93215064 29.45909083 -43.875 28.21875 C-41.86830276 27.0066389 -41.86830276 27.0066389 -40 25 C-39.319375 24.67 -38.63875 24.34 -37.9375 24 C-35.83134399 23.15410058 -35.83134399 23.15410058 -35 21 C-33 20.33333333 -31 19.66666667 -29 19 C-28.67 18.34 -28.34 17.68 -28 17 C-26.84640151 16.14004476 -25.64970132 15.33766479 -24.4375 14.5625 C-21.23131474 12.48547207 -18.0714906 10.36058005 -14.94921875 8.16015625 C-14.23773682 7.6612085 -13.52625488 7.16226074 -12.79321289 6.64819336 C-11.3578013 5.63980096 -9.92592839 4.62635085 -8.49780273 3.60766602 C-7.83079346 3.14158936 -7.16378418 2.6755127 -6.4765625 2.1953125 C-5.87924316 1.77266113 -5.28192383 1.35000977 -4.66650391 0.91455078 C-3 0 -3 0 0 0 Z " fill="#131313" transform="translate(446,212)"/>
<path d="M0 0 C2.25 -0.25 2.25 -0.25 5 0 C6.353125 1.31324342 7.68355757 2.64998708 9 4 C10.65757569 5.18871069 12.34919144 6.33062871 14.0625 7.4375 C19.3758721 10.91978256 24.63718624 14.46753895 29.875 18.0625 C31.49340926 19.17199218 33.11190142 20.28136344 34.73046875 21.390625 C35.57399902 21.96876953 36.4175293 22.54691406 37.28662109 23.14257812 C42.24887451 26.5394491 47.21836865 29.92570197 52.1875 33.3125 C53.16251465 33.97709229 54.1375293 34.64168457 55.14208984 35.32641602 C57.42796981 36.8844096 59.71393444 38.44227876 62 40 C61.67 41.32 61.34 42.64 61 44 C60.34 44 59.68 44 59 44 C58.79632813 44.54011719 58.59265625 45.08023438 58.3828125 45.63671875 C56.44197356 48.95368926 53.71054843 51.27726138 50.875 53.8125 C50.00355347 54.60382324 50.00355347 54.60382324 49.11450195 55.41113281 C44.78996733 59.32692238 40.42765337 63.20104665 36 67 C29.85715617 63.98413352 24.5011152 60.20981391 19.13842773 55.99755859 C15.28645248 52.97577419 11.37417093 50.07379566 7.375 47.25 C0.70376712 42.53454051 -5.87014272 37.69270416 -12.42822266 32.82128906 C-16.55240396 29.76653269 -20.69785206 26.79915395 -25 24 C-24.42655063 21.13275314 -24.1385485 20.1385485 -22 18 C-21.030625 17.360625 -20.06125 16.72125 -19.0625 16.0625 C-16.14188723 14.23764241 -16.14188723 14.23764241 -14.5 12.5 C-11.24479883 9.24479883 -7.16064605 6.92029818 -3 5 C-3 4.34 -3 3.68 -3 3 C-2.34 3 -1.68 3 -1 3 C-0.67 2.01 -0.34 1.02 0 0 Z " fill="#131313" transform="translate(218,212)"/>
<path d="M0 0 C2.04882812 1.2434082 2.04882812 1.2434082 4.03125 2.80078125 C4.75957031 3.36603516 5.48789062 3.93128906 6.23828125 4.51367188 C7.35783203 5.4040918 7.35783203 5.4040918 8.5 6.3125 C9.61955078 7.18551758 9.61955078 7.18551758 10.76171875 8.07617188 C14.53132613 11.02180313 18.26424237 14.0113939 22 17 C22 24.26 22 31.52 22 39 C5.5 39 -11 39 -28 39 C-28 19.4375 -28 19.4375 -27 16 C-25.05594715 14.13555276 -23.08078963 12.67664766 -20.8125 11.2265625 C-18.85447583 10.11737637 -18.85447583 10.11737637 -18 8 C-17.01 8 -16.02 8 -15 8 C-15 7.34 -15 6.68 -15 6 C-14.34 6 -13.68 6 -13 6 C-13 5.34 -13 4.68 -13 4 C-12.01 3.67 -11.02 3.34 -10 3 C-9.34 2.01 -8.68 1.02 -8 0 C-4.6296514 -1.12344953 -3.35668952 -0.96539976 0 0 Z " fill="#121212" transform="translate(334,181)"/>
<path d="M0 0 C0.99 0.33 1.98 0.66 3 1 C4.43346484 4.44422388 4.12299668 8.18444864 4.12025452 11.85894775 C4.12110894 12.54840225 4.12196337 13.23785675 4.12284368 13.9482038 C4.12449026 16.25748786 4.11899057 18.5666992 4.11352539 20.87597656 C4.11324332 22.53171792 4.11340165 24.1874594 4.1139679 25.84320068 C4.11425508 30.33869915 4.1083711 34.834171 4.10139394 39.32966328 C4.09514726 44.02753375 4.09455556 48.72540482 4.09336853 53.42327881 C4.0902591 62.31964248 4.08205092 71.21599387 4.07201904 80.11235213 C4.06084587 90.24042464 4.05534441 100.36849774 4.05032361 110.49657488 C4.039868 131.33105677 4.02227605 152.16552761 4 173 C3.01 173 2.02 173 1 173 C1.00092179 172.12055536 1.00184359 171.24111073 1.00279331 170.33501625 C1.02485228 148.96225655 1.04141338 127.5894988 1.05181217 106.21673012 C1.05697426 95.88113624 1.06401532 85.54554995 1.07543945 75.20996094 C1.08538893 66.20424468 1.09185406 57.19853392 1.09408849 48.19281232 C1.09539515 43.42185561 1.09847818 38.65091461 1.10573006 33.87996292 C1.11249441 29.39359013 1.11461611 24.9072396 1.11310768 20.4208622 C1.11338382 18.77044237 1.11538649 17.12002183 1.11920547 15.4696064 C1.12414919 13.22381995 1.12299576 10.97811857 1.12025452 8.73233032 C1.12117631 7.47316111 1.1220981 6.21399189 1.12304783 4.91666603 C1.20188032 2.06283086 1.20188032 2.06283086 0 0 Z " fill="#8E8E8E" transform="translate(191,364)"/>
<path d="M0 0 C-0.66 1.32 -1.32 2.64 -2 4 C-2.66 4 -3.32 4 -4 4 C-3.67 60.43 -3.34 116.86 -3 175 C-3.66 175.33 -4.32 175.66 -5 176 C-5.06999839 153.34778139 -5.12294311 130.69558055 -5.15543652 108.04327583 C-5.17092298 97.52604691 -5.1920464 87.00888508 -5.22631836 76.49169922 C-5.25616635 67.32776944 -5.27556204 58.16388823 -5.28226548 48.99991119 C-5.28618557 44.14506321 -5.29543502 39.29035423 -5.31719017 34.43555069 C-5.33748277 29.87033729 -5.34384854 25.30532075 -5.33932304 20.74006653 C-5.3401515 19.06061103 -5.34616007 17.38114926 -5.35761642 15.70173264 C-5.37244793 13.41631687 -5.36898849 11.13165353 -5.36076355 8.84622192 C-5.36352893 7.56492968 -5.36629431 6.28363743 -5.36914349 4.96351814 C-5.24732614 3.98555716 -5.12550879 3.00759617 -5 2 C-2 0 -2 0 0 0 Z " fill="#636363" transform="translate(475,363)"/>
<path d="M0 0 C0.66 0.33 1.32 0.66 2 1 C2 27.07 2 53.14 2 80 C1.34 80 0.68 80 0 80 C0 54.59 0 29.18 0 3 C-0.66 3 -1.32 3 -2 3 C-2.4640625 3.928125 -2.4640625 3.928125 -2.9375 4.875 C-3.625 6.25 -4.3125 7.625 -5 9 C-6.32 8.34 -7.64 7.68 -9 7 C-6.03 4.69 -3.06 2.38 0 0 Z " fill="#858585" transform="translate(196,49)"/>
<path d="M0 0 C0.99 0 1.98 0 3 0 C1.9469836 2.54478963 1.40975208 3.77529882 -1.05371094 5.1262207 C-3.3853943 6.97779833 -3.3853943 6.97779833 -3.45410156 10.64526367 C-3.45346936 12.15298037 -3.43093202 13.66079079 -3.390625 15.16796875 C-3.38496521 15.96278152 -3.37930542 16.7575943 -3.37347412 17.57649231 C-3.35109004 20.11410866 -3.30089262 22.6503108 -3.25 25.1875 C-3.2299375 26.90818273 -3.21168629 28.62888759 -3.1953125 30.34960938 C-3.15121894 34.56695082 -3.08217965 38.78323569 -3 43 C-0.69 43 1.62 43 4 43 C0.79191085 45.1387261 -0.27698497 45.47730962 -4 45 C-6.53222254 41.2016662 -6.30589635 38.12123906 -6.30078125 33.71875 C-6.30506638 32.9088562 -6.3093515 32.0989624 -6.31376648 31.26452637 C-6.31950638 29.55315078 -6.32001254 27.8417508 -6.31567383 26.13037109 C-6.31251167 23.50966916 -6.33598372 20.89009378 -6.36132812 18.26953125 C-6.36360091 16.60677226 -6.36430471 14.94401023 -6.36328125 13.28125 C-6.37709587 12.10459778 -6.37709587 12.10459778 -6.39118958 10.9041748 C-6.34531788 5.52179685 -6.34531788 5.52179685 -4.66479492 2.98242188 C-3 2 -3 2 0 2 C0 1.34 0 0.68 0 0 Z " fill="#6D6D6D" transform="translate(165,176)"/>
<path d="M0 0 C0.99 0.33 1.98 0.66 3 1 C2.2884375 1.8353125 2.2884375 1.8353125 1.5625 2.6875 C-1.37706383 7.03805446 -1.13975412 11.77792898 -1.20532227 16.90161133 C-1.21522186 17.57533783 -1.22512146 18.24906433 -1.23532104 18.94320679 C-1.26674923 21.1561133 -1.291619 23.36904124 -1.31640625 25.58203125 C-1.33699194 27.12188759 -1.35798883 28.66173849 -1.37937927 30.20158386 C-1.43443318 34.24404475 -1.48391564 38.28655522 -1.53222656 42.32910156 C-1.58256379 46.45837794 -1.63818591 50.58758279 -1.69335938 54.71679688 C-1.80073676 62.81113734 -1.9022266 70.90553786 -2 79 C-1.34 79.33 -0.68 79.66 0 80 C-0.99 80 -1.98 80 -3 80 C-3.06945342 70.0123038 -3.12278753 60.02466488 -3.15543652 50.03677654 C-3.17110494 45.3991869 -3.19236458 40.76176225 -3.22631836 36.12426758 C-3.25887 31.65037727 -3.27684415 27.17664583 -3.28463173 22.70264626 C-3.2901828 20.99416413 -3.3010225 19.28569088 -3.31719017 17.57727623 C-3.33890904 15.18763688 -3.34196931 12.79865742 -3.34057617 10.40893555 C-3.351362 9.69971451 -3.36214783 8.99049347 -3.3732605 8.25978088 C-3.34279011 3.44233433 -3.34279011 3.44233433 -1.47871399 1.03694153 C-0.74675056 0.52365547 -0.74675056 0.52365547 0 0 Z " fill="#B5B5B5" transform="translate(162,73)"/>
<path d="M0 0 C0.66 0.66 1.32 1.32 2 2 C1.67 2.33 1.34 2.66 1 3 C0.71988816 6.9720707 0.76820824 10.95672416 0.75 14.9375 C0.729375 16.06091797 0.70875 17.18433594 0.6875 18.34179688 C0.67976563 19.94958008 0.67976563 19.94958008 0.671875 21.58984375 C0.6625293 22.57847412 0.65318359 23.56710449 0.64355469 24.58569336 C0.76118164 25.38241455 0.87880859 26.17913574 1 27 C1.99 27.66 2.98 28.32 4 29 C1 31 1 31 -2 31 C-2.04947698 27.06734104 -2.08575578 23.13480286 -2.10986328 19.2019043 C-2.12485495 17.20680382 -2.15026731 15.21179054 -2.17578125 13.21679688 C-2.18222656 11.96318359 -2.18867188 10.70957031 -2.1953125 9.41796875 C-2.20578613 8.26063232 -2.21625977 7.1032959 -2.22705078 5.91088867 C-2 3 -2 3 0 0 Z " fill="#969696" transform="translate(381,195)"/>
<path d="M0 0 C2.475 0.99 2.475 0.99 5 2 C5 21.47 5 40.94 5 61 C4.67 61 4.34 61 4 61 C3.99413376 60.29034088 3.98826752 59.58068176 3.98222351 58.84951782 C3.92437234 52.16879347 3.85234008 45.48839124 3.76428509 38.80799294 C3.7195151 35.37332113 3.68027428 31.93876975 3.65356445 28.50390625 C3.6226329 24.5570311 3.56784148 20.61066324 3.51171875 16.6640625 C3.50532883 15.42757965 3.4989389 14.1910968 3.49235535 12.91714478 C3.47256119 11.77611298 3.45276703 10.63508118 3.43237305 9.45947266 C3.42126999 8.451315 3.41016693 7.44315735 3.39872742 6.40444946 C3.26714737 5.61098114 3.13556732 4.81751282 3 4 C2.01 3.34 1.02 2.68 0 2 C0 1.34 0 0.68 0 0 Z " fill="#454545" transform="translate(500,253)"/>
<path d="M0 0 C0.99 0.33 1.98 0.66 3 1 C1.38405168 3.04119788 -0.2856382 5.04072937 -2 7 C-2.66 7 -3.32 7 -4 7 C-4.33 7.66 -4.66 8.32 -5 9 C-5.66 9 -6.32 9 -7 9 C-7.33 10.65 -7.66 12.3 -8 14 C-8.33 14 -8.66 14 -9 14 C-9.5 11.375 -9.5 11.375 -9 8 C-7.07666674 6.16702468 -5.06744741 4.75324592 -2.84765625 3.296875 C-0.86321762 2.12240266 -0.86321762 2.12240266 0 0 Z " fill="#7F7F7F" transform="translate(316,189)"/>
<path d="M0 0 C0 4.29 0 8.58 0 13 C-0.33 13 -0.66 13 -1 13 C-1 9.04 -1 5.08 -1 1 C-1.66 1 -2.32 1 -3 1 C-3.4640625 1.928125 -3.4640625 1.928125 -3.9375 2.875 C-4.625 4.25 -5.3125 5.625 -6 7 C-7.32 6.34 -8.64 5.68 -10 5 C-4.5 0 -4.5 0 0 0 Z " fill="#4D4D4D" transform="translate(197,51)"/>
<path d="M0 0 C0.99 0.33 1.98 0.66 3 1 C2.29423828 1.75023438 2.29423828 1.75023438 1.57421875 2.515625 C-0.50010763 5.78925174 -0.7990039 8.97909289 -1.1875 12.75 C-1.26935547 13.44738281 -1.35121094 14.14476563 -1.43554688 14.86328125 C-1.63477133 16.57426776 -1.81889929 18.28700037 -2 20 C-2.33 20 -2.66 20 -3 20 C-3.08089542 17.22858283 -3.14044062 14.45952181 -3.1875 11.6875 C-3.22520508 10.50897461 -3.22520508 10.50897461 -3.26367188 9.30664062 C-3.27333984 8.54931641 -3.28300781 7.79199219 -3.29296875 7.01171875 C-3.3086792 6.31522217 -3.32438965 5.61872559 -3.34057617 4.90112305 C-2.90238443 2.45510217 -1.86562642 1.57297914 0 0 Z " fill="#999999" transform="translate(162,73)"/>
<path d="M0 0 C-0.92652701 1.17539996 -1.86663387 2.34010577 -2.8125 3.5 C-3.59560547 4.47453125 -3.59560547 4.47453125 -4.39453125 5.46875 C-6.7511125 7.71638954 -8.83899823 7 -12 7 C-5.54347826 -1.84782609 -5.54347826 -1.84782609 0 0 Z " fill="#858585" transform="translate(172,249)"/>
<path d="M0 0 C-1.39935885 3.40364888 -2.87004732 4.90806188 -6 6.8125 C-7.051875 7.47185547 -7.051875 7.47185547 -8.125 8.14453125 C-8.74375 8.42683594 -9.3625 8.70914063 -10 9 C-10.66 8.67 -11.32 8.34 -12 8 C-10.625 6.5 -10.625 6.5 -9 5 C-8.34 5 -7.68 5 -7 5 C-6.67 4.01 -6.34 3.02 -6 2 C-3 0 -3 0 0 0 Z " fill="#8B8B8B" transform="translate(188,161)"/>
<path d="M0 0 C0.66 0.33 1.32 0.66 2 1 C-1 4 -4 7 -7 10 C-7.99 9.34 -8.98 8.68 -10 8 C-8.68 7.34 -7.36 6.68 -6 6 C-6 5.34 -6 4.68 -6 4 C-4.03852126 2.61061923 -2.03833424 1.2739589 0 0 Z " fill="#949494" transform="translate(439,154)"/>
<path d="M0 0 C1.670625 0.37125 1.670625 0.37125 3.375 0.75 C3.705 1.41 4.035 2.07 4.375 2.75 C3.42625 2.70875 2.4775 2.6675 1.5 2.625 C-1.72744856 2.40026182 -1.72744856 2.40026182 -3.625 4.75 C-4.945 4.75 -6.265 4.75 -7.625 4.75 C-6.13152681 0.26958042 -4.6390592 -0.31993512 0 0 Z " fill="#919191" transform="translate(210.625,145.25)"/>
<path d="M0 0 C2.475 0.99 2.475 0.99 5 2 C5 7.28 5 12.56 5 18 C4.67 18 4.34 18 4 18 C3.96261719 17.01257813 3.92523438 16.02515625 3.88671875 15.0078125 C3.82097656 13.72648437 3.75523437 12.44515625 3.6875 11.125 C3.62949219 9.84882813 3.57148438 8.57265625 3.51171875 7.2578125 C3.34285156 6.18273437 3.17398437 5.10765625 3 4 C2.01 3.34 1.02 2.68 0 2 C0 1.34 0 0.68 0 0 Z " fill="#737373" transform="translate(500,253)"/>
<path d="M0 0 C0.66 0.33 1.32 0.66 2 1 C0.10595266 4.34243648 -0.94091591 4.97997149 -4.6875 6.25 C-6.3271875 6.62125 -6.3271875 6.62125 -8 7 C-5.42215154 4.35247996 -3.08351902 2.05567935 0 0 Z " fill="#868686" transform="translate(420,168)"/>
<path d="M0 0 C-0.66 1.32 -1.32 2.64 -2 4 C-2.66 4 -3.32 4 -4 4 C-4 5.98 -4 7.96 -4 10 C-4.33 10 -4.66 10 -5 10 C-5.29296875 3.9453125 -5.29296875 3.9453125 -5 2 C-2 0 -2 0 0 0 Z " fill="#707070" transform="translate(475,363)"/>
<path d="M0 0 C0.99 0 1.98 0 3 0 C2.3125 1.9375 2.3125 1.9375 1 4 C-1.625 4.75 -1.625 4.75 -4 5 C-3.67 4.01 -3.34 3.02 -3 2 C-2.01 2 -1.02 2 0 2 C0 1.34 0 0.68 0 0 Z " fill="#888888" transform="translate(165,176)"/>
<path d="M0 0 C0.66 0.66 1.32 1.32 2 2 C1.34 3.65 0.68 5.3 0 7 C-0.66 7 -1.32 7 -2 7 C-2 6.34 -2 5.68 -2 5 C-2.66 4.67 -3.32 4.34 -4 4 C-2.68 2.68 -1.36 1.36 0 0 Z " fill="#686868" transform="translate(419,297)"/>
<path d="M0 0 C2 1 2 1 2 1 Z " fill="#F4F4F4" transform="translate(383,255)"/>
<path d="" fill="#F4F4F4" transform="translate(0,0)"/>
<path d="" fill="#F5F5F5" transform="translate(0,0)"/>
<path d="" fill="#F3F3F3" transform="translate(0,0)"/>
<path d="" fill="#F0F0F0" transform="translate(0,0)"/>
<path d="" fill="#F4F4F4" transform="translate(0,0)"/>
<path d="" fill="#F5F5F5" transform="translate(0,0)"/>
<path d="" fill="#F6F6F6" transform="translate(0,0)"/>
<path d="" fill="#F6F6F6" transform="translate(0,0)"/>
<path d="" fill="#F4F4F4" transform="translate(0,0)"/>
<path d="" fill="#F6F6F6" transform="translate(0,0)"/>
<path d="" fill="#F5F5F5" transform="translate(0,0)"/>
<path d="" fill="#FBFBFB" transform="translate(0,0)"/>
<path d="" fill="#F2F2F2" transform="translate(0,0)"/>
<path d="" fill="#F4F4F4" transform="translate(0,0)"/>
<path d="" fill="#F6F6F6" transform="translate(0,0)"/>
<path d="" fill="#F5F5F5" transform="translate(0,0)"/>
<path d="" fill="#F4F4F4" transform="translate(0,0)"/>
<path d="" fill="#F4F4F4" transform="translate(0,0)"/>
<path d="" fill="#F6F6F6" transform="translate(0,0)"/>
<path d="" fill="#F6F6F6" transform="translate(0,0)"/>
<path d="" fill="#F3F3F3" transform="translate(0,0)"/>
<path d="" fill="#F5F5F5" transform="translate(0,0)"/>
<path d="" fill="#F4F4F4" transform="translate(0,0)"/>
<path d="" fill="#F5F5F5" transform="translate(0,0)"/>
<path d="" fill="#F7F7F7" transform="translate(0,0)"/>
<path d="" fill="#F7F7F7" transform="translate(0,0)"/>
<path d="" fill="#F4F4F4" transform="translate(0,0)"/>
<path d="" fill="#F3F3F3" transform="translate(0,0)"/>
<path d="" fill="#F2F2F2" transform="translate(0,0)"/>
<path d="" fill="#F2F2F2" transform="translate(0,0)"/>
<path d="" fill="#F5F5F5" transform="translate(0,0)"/>
<path d="" fill="#F7F7F7" transform="translate(0,0)"/>
<path d="" fill="#F4F4F4" transform="translate(0,0)"/>
</svg>
